<mxfile host="65bd71144e">
    <diagram id="cfnFnvwbAdQeJfS-v4P1" name="Page-1">
        <mxGraphModel dx="3653" dy="3830" grid="1" gridSize="10" guides="1" tooltips="1" connect="1" arrows="1" fold="1" page="1" pageScale="1" pageWidth="850" pageHeight="1100" math="0" shadow="0">
            <root>
                <mxCell id="0"/>
                <mxCell id="1" parent="0"/>
                <mxCell id="150" value="" style="shape=table;childLayout=tableLayout;startSize=0;fillColor=none;collapsible=0;recursiveResize=0;expand=0;" vertex="1" parent="1">
                    <mxGeometry x="-1790" y="-2160" width="2280" height="2400" as="geometry"/>
                </mxCell>
                <mxCell id="151" value="" style="shape=tableRow;horizontal=0;swimlaneHead=0;swimlaneBody=0;top=0;left=0;strokeColor=inherit;bottom=0;right=0;dropTarget=0;fontStyle=0;fillColor=none;points=[[0,0.5],[1,0.5]];portConstraint=eastwest;startSize=40;collapsible=0;recursiveResize=0;expand=0;" vertex="1" parent="150">
                    <mxGeometry width="2280" height="120" as="geometry"/>
                </mxCell>
                <mxCell id="152" value="" style="swimlane;swimlaneHead=0;swimlaneBody=0;fontStyle=0;strokeColor=inherit;connectable=0;fillColor=none;startSize=40;collapsible=0;recursiveResize=0;expand=0;" vertex="1" parent="151">
                    <mxGeometry x="40" width="118" height="120" as="geometry">
                        <mxRectangle width="118" height="120" as="alternateBounds"/>
                    </mxGeometry>
                </mxCell>
                <mxCell id="153" value="" style="swimlane;swimlaneHead=0;swimlaneBody=0;fontStyle=0;strokeColor=inherit;connectable=0;fillColor=none;startSize=40;collapsible=0;recursiveResize=0;expand=0;" vertex="1" parent="151">
                    <mxGeometry x="158" width="118" height="120" as="geometry">
                        <mxRectangle width="118" height="120" as="alternateBounds"/>
                    </mxGeometry>
                </mxCell>
                <mxCell id="154" value="" style="swimlane;swimlaneHead=0;swimlaneBody=0;fontStyle=0;strokeColor=inherit;connectable=0;fillColor=none;startSize=40;collapsible=0;recursiveResize=0;expand=0;" vertex="1" parent="151">
                    <mxGeometry x="276" width="118" height="120" as="geometry">
                        <mxRectangle width="118" height="120" as="alternateBounds"/>
                    </mxGeometry>
                </mxCell>
                <mxCell id="155" value="" style="swimlane;swimlaneHead=0;swimlaneBody=0;fontStyle=0;strokeColor=inherit;connectable=0;fillColor=none;startSize=40;collapsible=0;recursiveResize=0;expand=0;" vertex="1" parent="151">
                    <mxGeometry x="394" width="118" height="120" as="geometry">
                        <mxRectangle width="118" height="120" as="alternateBounds"/>
                    </mxGeometry>
                </mxCell>
                <mxCell id="156" value="" style="swimlane;swimlaneHead=0;swimlaneBody=0;fontStyle=0;strokeColor=inherit;connectable=0;fillColor=none;startSize=40;collapsible=0;recursiveResize=0;expand=0;" vertex="1" parent="151">
                    <mxGeometry x="512" width="117" height="120" as="geometry">
                        <mxRectangle width="117" height="120" as="alternateBounds"/>
                    </mxGeometry>
                </mxCell>
                <mxCell id="157" value="" style="swimlane;swimlaneHead=0;swimlaneBody=0;fontStyle=0;strokeColor=inherit;connectable=0;fillColor=none;startSize=40;collapsible=0;recursiveResize=0;expand=0;" vertex="1" parent="151">
                    <mxGeometry x="629" width="118" height="120" as="geometry">
                        <mxRectangle width="118" height="120" as="alternateBounds"/>
                    </mxGeometry>
                </mxCell>
                <mxCell id="158" value="" style="swimlane;swimlaneHead=0;swimlaneBody=0;fontStyle=0;strokeColor=inherit;connectable=0;fillColor=none;startSize=40;collapsible=0;recursiveResize=0;expand=0;" vertex="1" parent="151">
                    <mxGeometry x="747" width="118" height="120" as="geometry">
                        <mxRectangle width="118" height="120" as="alternateBounds"/>
                    </mxGeometry>
                </mxCell>
                <mxCell id="159" value="" style="swimlane;swimlaneHead=0;swimlaneBody=0;fontStyle=0;strokeColor=inherit;connectable=0;fillColor=none;startSize=40;collapsible=0;recursiveResize=0;expand=0;" vertex="1" parent="151">
                    <mxGeometry x="865" width="118" height="120" as="geometry">
                        <mxRectangle width="118" height="120" as="alternateBounds"/>
                    </mxGeometry>
                </mxCell>
                <mxCell id="160" value="" style="swimlane;swimlaneHead=0;swimlaneBody=0;fontStyle=0;strokeColor=inherit;connectable=0;fillColor=none;startSize=40;collapsible=0;recursiveResize=0;expand=0;" vertex="1" parent="151">
                    <mxGeometry x="983" width="118" height="120" as="geometry">
                        <mxRectangle width="118" height="120" as="alternateBounds"/>
                    </mxGeometry>
                </mxCell>
                <mxCell id="161" value="" style="swimlane;swimlaneHead=0;swimlaneBody=0;fontStyle=0;strokeColor=inherit;connectable=0;fillColor=none;startSize=40;collapsible=0;recursiveResize=0;expand=0;" vertex="1" parent="151">
                    <mxGeometry x="1101" width="118" height="120" as="geometry">
                        <mxRectangle width="118" height="120" as="alternateBounds"/>
                    </mxGeometry>
                </mxCell>
                <mxCell id="162" value="" style="swimlane;swimlaneHead=0;swimlaneBody=0;fontStyle=0;strokeColor=inherit;connectable=0;fillColor=none;startSize=40;collapsible=0;recursiveResize=0;expand=0;" vertex="1" parent="151">
                    <mxGeometry x="1219" width="118" height="120" as="geometry">
                        <mxRectangle width="118" height="120" as="alternateBounds"/>
                    </mxGeometry>
                </mxCell>
                <mxCell id="163" value="" style="swimlane;swimlaneHead=0;swimlaneBody=0;fontStyle=0;strokeColor=inherit;connectable=0;fillColor=none;startSize=40;collapsible=0;recursiveResize=0;expand=0;" vertex="1" parent="151">
                    <mxGeometry x="1337" width="118" height="120" as="geometry">
                        <mxRectangle width="118" height="120" as="alternateBounds"/>
                    </mxGeometry>
                </mxCell>
                <mxCell id="164" value="" style="swimlane;swimlaneHead=0;swimlaneBody=0;fontStyle=0;strokeColor=inherit;connectable=0;fillColor=none;startSize=40;collapsible=0;recursiveResize=0;expand=0;" vertex="1" parent="151">
                    <mxGeometry x="1455" width="118" height="120" as="geometry">
                        <mxRectangle width="118" height="120" as="alternateBounds"/>
                    </mxGeometry>
                </mxCell>
                <mxCell id="165" value="" style="swimlane;swimlaneHead=0;swimlaneBody=0;fontStyle=0;strokeColor=inherit;connectable=0;fillColor=none;startSize=40;collapsible=0;recursiveResize=0;expand=0;" vertex="1" parent="151">
                    <mxGeometry x="1573" width="118" height="120" as="geometry">
                        <mxRectangle width="118" height="120" as="alternateBounds"/>
                    </mxGeometry>
                </mxCell>
                <mxCell id="166" value="" style="swimlane;swimlaneHead=0;swimlaneBody=0;fontStyle=0;strokeColor=inherit;connectable=0;fillColor=none;startSize=40;collapsible=0;recursiveResize=0;expand=0;" vertex="1" parent="151">
                    <mxGeometry x="1691" width="117" height="120" as="geometry">
                        <mxRectangle width="117" height="120" as="alternateBounds"/>
                    </mxGeometry>
                </mxCell>
                <mxCell id="167" value="" style="swimlane;swimlaneHead=0;swimlaneBody=0;fontStyle=0;strokeColor=inherit;connectable=0;fillColor=none;startSize=40;collapsible=0;recursiveResize=0;expand=0;" vertex="1" parent="151">
                    <mxGeometry x="1808" width="118" height="120" as="geometry">
                        <mxRectangle width="118" height="120" as="alternateBounds"/>
                    </mxGeometry>
                </mxCell>
                <mxCell id="168" value="" style="swimlane;swimlaneHead=0;swimlaneBody=0;fontStyle=0;strokeColor=inherit;connectable=0;fillColor=none;startSize=40;collapsible=0;recursiveResize=0;expand=0;" vertex="1" parent="151">
                    <mxGeometry x="1926" width="118" height="120" as="geometry">
                        <mxRectangle width="118" height="120" as="alternateBounds"/>
                    </mxGeometry>
                </mxCell>
                <mxCell id="169" value="" style="swimlane;swimlaneHead=0;swimlaneBody=0;fontStyle=0;strokeColor=inherit;connectable=0;fillColor=none;startSize=40;collapsible=0;recursiveResize=0;expand=0;" vertex="1" parent="151">
                    <mxGeometry x="2044" width="118" height="120" as="geometry">
                        <mxRectangle width="118" height="120" as="alternateBounds"/>
                    </mxGeometry>
                </mxCell>
                <mxCell id="170" value="" style="swimlane;swimlaneHead=0;swimlaneBody=0;fontStyle=0;strokeColor=inherit;connectable=0;fillColor=none;startSize=40;collapsible=0;recursiveResize=0;expand=0;" vertex="1" parent="151">
                    <mxGeometry x="2162" width="118" height="120" as="geometry">
                        <mxRectangle width="118" height="120" as="alternateBounds"/>
                    </mxGeometry>
                </mxCell>
                <mxCell id="171" value="" style="shape=tableRow;horizontal=0;swimlaneHead=0;swimlaneBody=0;top=0;left=0;strokeColor=inherit;bottom=0;right=0;dropTarget=0;fontStyle=0;fillColor=none;points=[[0,0.5],[1,0.5]];portConstraint=eastwest;startSize=40;collapsible=0;recursiveResize=0;expand=0;" vertex="1" parent="150">
                    <mxGeometry y="120" width="2280" height="120" as="geometry"/>
                </mxCell>
                <mxCell id="172" value="" style="swimlane;swimlaneHead=0;swimlaneBody=0;fontStyle=0;connectable=0;strokeColor=inherit;fillColor=none;startSize=0;collapsible=0;recursiveResize=0;expand=0;" vertex="1" parent="171">
                    <mxGeometry x="40" width="118" height="120" as="geometry">
                        <mxRectangle width="118" height="120" as="alternateBounds"/>
                    </mxGeometry>
                </mxCell>
                <mxCell id="173" value="" style="swimlane;swimlaneHead=0;swimlaneBody=0;fontStyle=0;connectable=0;strokeColor=inherit;fillColor=none;startSize=0;collapsible=0;recursiveResize=0;expand=0;" vertex="1" parent="171">
                    <mxGeometry x="158" width="118" height="120" as="geometry">
                        <mxRectangle width="118" height="120" as="alternateBounds"/>
                    </mxGeometry>
                </mxCell>
                <mxCell id="174" value="" style="swimlane;swimlaneHead=0;swimlaneBody=0;fontStyle=0;connectable=0;strokeColor=inherit;fillColor=none;startSize=0;collapsible=0;recursiveResize=0;expand=0;" vertex="1" parent="171">
                    <mxGeometry x="276" width="118" height="120" as="geometry">
                        <mxRectangle width="118" height="120" as="alternateBounds"/>
                    </mxGeometry>
                </mxCell>
                <mxCell id="175" value="" style="swimlane;swimlaneHead=0;swimlaneBody=0;fontStyle=0;connectable=0;strokeColor=inherit;fillColor=none;startSize=0;collapsible=0;recursiveResize=0;expand=0;" vertex="1" parent="171">
                    <mxGeometry x="394" width="118" height="120" as="geometry">
                        <mxRectangle width="118" height="120" as="alternateBounds"/>
                    </mxGeometry>
                </mxCell>
                <mxCell id="176" value="" style="swimlane;swimlaneHead=0;swimlaneBody=0;fontStyle=0;connectable=0;strokeColor=inherit;fillColor=none;startSize=0;collapsible=0;recursiveResize=0;expand=0;" vertex="1" parent="171">
                    <mxGeometry x="512" width="117" height="120" as="geometry">
                        <mxRectangle width="117" height="120" as="alternateBounds"/>
                    </mxGeometry>
                </mxCell>
                <mxCell id="177" value="" style="swimlane;swimlaneHead=0;swimlaneBody=0;fontStyle=0;connectable=0;strokeColor=inherit;fillColor=none;startSize=0;collapsible=0;recursiveResize=0;expand=0;" vertex="1" parent="171">
                    <mxGeometry x="629" width="118" height="120" as="geometry">
                        <mxRectangle width="118" height="120" as="alternateBounds"/>
                    </mxGeometry>
                </mxCell>
                <mxCell id="178" value="" style="swimlane;swimlaneHead=0;swimlaneBody=0;fontStyle=0;connectable=0;strokeColor=inherit;fillColor=none;startSize=0;collapsible=0;recursiveResize=0;expand=0;" vertex="1" parent="171">
                    <mxGeometry x="747" width="118" height="120" as="geometry">
                        <mxRectangle width="118" height="120" as="alternateBounds"/>
                    </mxGeometry>
                </mxCell>
                <mxCell id="179" value="" style="swimlane;swimlaneHead=0;swimlaneBody=0;fontStyle=0;connectable=0;strokeColor=inherit;fillColor=none;startSize=0;collapsible=0;recursiveResize=0;expand=0;" vertex="1" parent="171">
                    <mxGeometry x="865" width="118" height="120" as="geometry">
                        <mxRectangle width="118" height="120" as="alternateBounds"/>
                    </mxGeometry>
                </mxCell>
                <mxCell id="180" value="" style="swimlane;swimlaneHead=0;swimlaneBody=0;fontStyle=0;connectable=0;strokeColor=inherit;fillColor=none;startSize=0;collapsible=0;recursiveResize=0;expand=0;" vertex="1" parent="171">
                    <mxGeometry x="983" width="118" height="120" as="geometry">
                        <mxRectangle width="118" height="120" as="alternateBounds"/>
                    </mxGeometry>
                </mxCell>
                <mxCell id="181" value="" style="swimlane;swimlaneHead=0;swimlaneBody=0;fontStyle=0;connectable=0;strokeColor=inherit;fillColor=none;startSize=0;collapsible=0;recursiveResize=0;expand=0;" vertex="1" parent="171">
                    <mxGeometry x="1101" width="118" height="120" as="geometry">
                        <mxRectangle width="118" height="120" as="alternateBounds"/>
                    </mxGeometry>
                </mxCell>
                <mxCell id="182" value="" style="swimlane;swimlaneHead=0;swimlaneBody=0;fontStyle=0;connectable=0;strokeColor=inherit;fillColor=none;startSize=0;collapsible=0;recursiveResize=0;expand=0;" vertex="1" parent="171">
                    <mxGeometry x="1219" width="118" height="120" as="geometry">
                        <mxRectangle width="118" height="120" as="alternateBounds"/>
                    </mxGeometry>
                </mxCell>
                <mxCell id="183" value="" style="swimlane;swimlaneHead=0;swimlaneBody=0;fontStyle=0;connectable=0;strokeColor=inherit;fillColor=none;startSize=0;collapsible=0;recursiveResize=0;expand=0;" vertex="1" parent="171">
                    <mxGeometry x="1337" width="118" height="120" as="geometry">
                        <mxRectangle width="118" height="120" as="alternateBounds"/>
                    </mxGeometry>
                </mxCell>
                <mxCell id="184" value="" style="swimlane;swimlaneHead=0;swimlaneBody=0;fontStyle=0;connectable=0;strokeColor=inherit;fillColor=none;startSize=0;collapsible=0;recursiveResize=0;expand=0;" vertex="1" parent="171">
                    <mxGeometry x="1455" width="118" height="120" as="geometry">
                        <mxRectangle width="118" height="120" as="alternateBounds"/>
                    </mxGeometry>
                </mxCell>
                <mxCell id="185" value="" style="swimlane;swimlaneHead=0;swimlaneBody=0;fontStyle=0;connectable=0;strokeColor=inherit;fillColor=none;startSize=0;collapsible=0;recursiveResize=0;expand=0;" vertex="1" parent="171">
                    <mxGeometry x="1573" width="118" height="120" as="geometry">
                        <mxRectangle width="118" height="120" as="alternateBounds"/>
                    </mxGeometry>
                </mxCell>
                <mxCell id="186" value="" style="swimlane;swimlaneHead=0;swimlaneBody=0;fontStyle=0;connectable=0;strokeColor=inherit;fillColor=none;startSize=0;collapsible=0;recursiveResize=0;expand=0;" vertex="1" parent="171">
                    <mxGeometry x="1691" width="117" height="120" as="geometry">
                        <mxRectangle width="117" height="120" as="alternateBounds"/>
                    </mxGeometry>
                </mxCell>
                <mxCell id="187" value="" style="swimlane;swimlaneHead=0;swimlaneBody=0;fontStyle=0;connectable=0;strokeColor=inherit;fillColor=none;startSize=0;collapsible=0;recursiveResize=0;expand=0;" vertex="1" parent="171">
                    <mxGeometry x="1808" width="118" height="120" as="geometry">
                        <mxRectangle width="118" height="120" as="alternateBounds"/>
                    </mxGeometry>
                </mxCell>
                <mxCell id="188" value="" style="swimlane;swimlaneHead=0;swimlaneBody=0;fontStyle=0;connectable=0;strokeColor=inherit;fillColor=none;startSize=0;collapsible=0;recursiveResize=0;expand=0;" vertex="1" parent="171">
                    <mxGeometry x="1926" width="118" height="120" as="geometry">
                        <mxRectangle width="118" height="120" as="alternateBounds"/>
                    </mxGeometry>
                </mxCell>
                <mxCell id="189" value="" style="swimlane;swimlaneHead=0;swimlaneBody=0;fontStyle=0;connectable=0;strokeColor=inherit;fillColor=none;startSize=0;collapsible=0;recursiveResize=0;expand=0;" vertex="1" parent="171">
                    <mxGeometry x="2044" width="118" height="120" as="geometry">
                        <mxRectangle width="118" height="120" as="alternateBounds"/>
                    </mxGeometry>
                </mxCell>
                <mxCell id="190" value="" style="swimlane;swimlaneHead=0;swimlaneBody=0;fontStyle=0;connectable=0;strokeColor=inherit;fillColor=none;startSize=0;collapsible=0;recursiveResize=0;expand=0;" vertex="1" parent="171">
                    <mxGeometry x="2162" width="118" height="120" as="geometry">
                        <mxRectangle width="118" height="120" as="alternateBounds"/>
                    </mxGeometry>
                </mxCell>
                <mxCell id="191" value="" style="shape=tableRow;horizontal=0;swimlaneHead=0;swimlaneBody=0;top=0;left=0;strokeColor=inherit;bottom=0;right=0;dropTarget=0;fontStyle=0;fillColor=none;points=[[0,0.5],[1,0.5]];portConstraint=eastwest;startSize=40;collapsible=0;recursiveResize=0;expand=0;" vertex="1" parent="150">
                    <mxGeometry y="240" width="2280" height="120" as="geometry"/>
                </mxCell>
                <mxCell id="192" value="" style="swimlane;swimlaneHead=0;swimlaneBody=0;fontStyle=0;connectable=0;strokeColor=inherit;fillColor=none;startSize=0;collapsible=0;recursiveResize=0;expand=0;" vertex="1" parent="191">
                    <mxGeometry x="40" width="118" height="120" as="geometry">
                        <mxRectangle width="118" height="120" as="alternateBounds"/>
                    </mxGeometry>
                </mxCell>
                <mxCell id="193" value="" style="swimlane;swimlaneHead=0;swimlaneBody=0;fontStyle=0;connectable=0;strokeColor=inherit;fillColor=none;startSize=0;collapsible=0;recursiveResize=0;expand=0;" vertex="1" parent="191">
                    <mxGeometry x="158" width="118" height="120" as="geometry">
                        <mxRectangle width="118" height="120" as="alternateBounds"/>
                    </mxGeometry>
                </mxCell>
                <mxCell id="194" value="" style="swimlane;swimlaneHead=0;swimlaneBody=0;fontStyle=0;connectable=0;strokeColor=inherit;fillColor=none;startSize=0;collapsible=0;recursiveResize=0;expand=0;" vertex="1" parent="191">
                    <mxGeometry x="276" width="118" height="120" as="geometry">
                        <mxRectangle width="118" height="120" as="alternateBounds"/>
                    </mxGeometry>
                </mxCell>
                <mxCell id="195" value="" style="swimlane;swimlaneHead=0;swimlaneBody=0;fontStyle=0;connectable=0;strokeColor=inherit;fillColor=none;startSize=0;collapsible=0;recursiveResize=0;expand=0;" vertex="1" parent="191">
                    <mxGeometry x="394" width="118" height="120" as="geometry">
                        <mxRectangle width="118" height="120" as="alternateBounds"/>
                    </mxGeometry>
                </mxCell>
                <mxCell id="196" value="" style="swimlane;swimlaneHead=0;swimlaneBody=0;fontStyle=0;connectable=0;strokeColor=inherit;fillColor=none;startSize=0;collapsible=0;recursiveResize=0;expand=0;" vertex="1" parent="191">
                    <mxGeometry x="512" width="117" height="120" as="geometry">
                        <mxRectangle width="117" height="120" as="alternateBounds"/>
                    </mxGeometry>
                </mxCell>
                <mxCell id="197" value="" style="swimlane;swimlaneHead=0;swimlaneBody=0;fontStyle=0;connectable=0;strokeColor=inherit;fillColor=none;startSize=0;collapsible=0;recursiveResize=0;expand=0;" vertex="1" parent="191">
                    <mxGeometry x="629" width="118" height="120" as="geometry">
                        <mxRectangle width="118" height="120" as="alternateBounds"/>
                    </mxGeometry>
                </mxCell>
                <mxCell id="198" value="" style="swimlane;swimlaneHead=0;swimlaneBody=0;fontStyle=0;connectable=0;strokeColor=inherit;fillColor=none;startSize=0;collapsible=0;recursiveResize=0;expand=0;" vertex="1" parent="191">
                    <mxGeometry x="747" width="118" height="120" as="geometry">
                        <mxRectangle width="118" height="120" as="alternateBounds"/>
                    </mxGeometry>
                </mxCell>
                <mxCell id="551" value="" style="rounded=0;whiteSpace=wrap;html=1;" vertex="1" parent="198">
                    <mxGeometry x="-227" y="-30" width="420" height="170" as="geometry"/>
                </mxCell>
                <mxCell id="199" value="" style="swimlane;swimlaneHead=0;swimlaneBody=0;fontStyle=0;connectable=0;strokeColor=inherit;fillColor=none;startSize=0;collapsible=0;recursiveResize=0;expand=0;" vertex="1" parent="191">
                    <mxGeometry x="865" width="118" height="120" as="geometry">
                        <mxRectangle width="118" height="120" as="alternateBounds"/>
                    </mxGeometry>
                </mxCell>
                <mxCell id="200" value="" style="swimlane;swimlaneHead=0;swimlaneBody=0;fontStyle=0;connectable=0;strokeColor=inherit;fillColor=none;startSize=0;collapsible=0;recursiveResize=0;expand=0;" vertex="1" parent="191">
                    <mxGeometry x="983" width="118" height="120" as="geometry">
                        <mxRectangle width="118" height="120" as="alternateBounds"/>
                    </mxGeometry>
                </mxCell>
                <mxCell id="201" value="" style="swimlane;swimlaneHead=0;swimlaneBody=0;fontStyle=0;connectable=0;strokeColor=inherit;fillColor=none;startSize=0;collapsible=0;recursiveResize=0;expand=0;" vertex="1" parent="191">
                    <mxGeometry x="1101" width="118" height="120" as="geometry">
                        <mxRectangle width="118" height="120" as="alternateBounds"/>
                    </mxGeometry>
                </mxCell>
                <mxCell id="202" value="" style="swimlane;swimlaneHead=0;swimlaneBody=0;fontStyle=0;connectable=0;strokeColor=inherit;fillColor=none;startSize=0;collapsible=0;recursiveResize=0;expand=0;" vertex="1" parent="191">
                    <mxGeometry x="1219" width="118" height="120" as="geometry">
                        <mxRectangle width="118" height="120" as="alternateBounds"/>
                    </mxGeometry>
                </mxCell>
                <mxCell id="203" value="" style="swimlane;swimlaneHead=0;swimlaneBody=0;fontStyle=0;connectable=0;strokeColor=inherit;fillColor=none;startSize=0;collapsible=0;recursiveResize=0;expand=0;" vertex="1" parent="191">
                    <mxGeometry x="1337" width="118" height="120" as="geometry">
                        <mxRectangle width="118" height="120" as="alternateBounds"/>
                    </mxGeometry>
                </mxCell>
                <mxCell id="204" value="" style="swimlane;swimlaneHead=0;swimlaneBody=0;fontStyle=0;connectable=0;strokeColor=inherit;fillColor=none;startSize=0;collapsible=0;recursiveResize=0;expand=0;" vertex="1" parent="191">
                    <mxGeometry x="1455" width="118" height="120" as="geometry">
                        <mxRectangle width="118" height="120" as="alternateBounds"/>
                    </mxGeometry>
                </mxCell>
                <mxCell id="205" value="" style="swimlane;swimlaneHead=0;swimlaneBody=0;fontStyle=0;connectable=0;strokeColor=inherit;fillColor=none;startSize=0;collapsible=0;recursiveResize=0;expand=0;" vertex="1" parent="191">
                    <mxGeometry x="1573" width="118" height="120" as="geometry">
                        <mxRectangle width="118" height="120" as="alternateBounds"/>
                    </mxGeometry>
                </mxCell>
                <mxCell id="206" value="" style="swimlane;swimlaneHead=0;swimlaneBody=0;fontStyle=0;connectable=0;strokeColor=inherit;fillColor=none;startSize=0;collapsible=0;recursiveResize=0;expand=0;" vertex="1" parent="191">
                    <mxGeometry x="1691" width="117" height="120" as="geometry">
                        <mxRectangle width="117" height="120" as="alternateBounds"/>
                    </mxGeometry>
                </mxCell>
                <mxCell id="207" value="" style="swimlane;swimlaneHead=0;swimlaneBody=0;fontStyle=0;connectable=0;strokeColor=inherit;fillColor=none;startSize=0;collapsible=0;recursiveResize=0;expand=0;" vertex="1" parent="191">
                    <mxGeometry x="1808" width="118" height="120" as="geometry">
                        <mxRectangle width="118" height="120" as="alternateBounds"/>
                    </mxGeometry>
                </mxCell>
                <mxCell id="208" value="" style="swimlane;swimlaneHead=0;swimlaneBody=0;fontStyle=0;connectable=0;strokeColor=inherit;fillColor=none;startSize=0;collapsible=0;recursiveResize=0;expand=0;" vertex="1" parent="191">
                    <mxGeometry x="1926" width="118" height="120" as="geometry">
                        <mxRectangle width="118" height="120" as="alternateBounds"/>
                    </mxGeometry>
                </mxCell>
                <mxCell id="209" value="" style="swimlane;swimlaneHead=0;swimlaneBody=0;fontStyle=0;connectable=0;strokeColor=inherit;fillColor=none;startSize=0;collapsible=0;recursiveResize=0;expand=0;" vertex="1" parent="191">
                    <mxGeometry x="2044" width="118" height="120" as="geometry">
                        <mxRectangle width="118" height="120" as="alternateBounds"/>
                    </mxGeometry>
                </mxCell>
                <mxCell id="210" value="" style="swimlane;swimlaneHead=0;swimlaneBody=0;fontStyle=0;connectable=0;strokeColor=inherit;fillColor=none;startSize=0;collapsible=0;recursiveResize=0;expand=0;" vertex="1" parent="191">
                    <mxGeometry x="2162" width="118" height="120" as="geometry">
                        <mxRectangle width="118" height="120" as="alternateBounds"/>
                    </mxGeometry>
                </mxCell>
                <mxCell id="211" value="" style="shape=tableRow;horizontal=0;swimlaneHead=0;swimlaneBody=0;top=0;left=0;strokeColor=inherit;bottom=0;right=0;dropTarget=0;fontStyle=0;fillColor=none;points=[[0,0.5],[1,0.5]];portConstraint=eastwest;startSize=40;collapsible=0;recursiveResize=0;expand=0;" vertex="1" parent="150">
                    <mxGeometry y="360" width="2280" height="120" as="geometry"/>
                </mxCell>
                <mxCell id="212" value="" style="swimlane;swimlaneHead=0;swimlaneBody=0;fontStyle=0;connectable=0;strokeColor=inherit;fillColor=none;startSize=0;collapsible=0;recursiveResize=0;expand=0;" vertex="1" parent="211">
                    <mxGeometry x="40" width="118" height="120" as="geometry">
                        <mxRectangle width="118" height="120" as="alternateBounds"/>
                    </mxGeometry>
                </mxCell>
                <mxCell id="213" value="" style="swimlane;swimlaneHead=0;swimlaneBody=0;fontStyle=0;connectable=0;strokeColor=inherit;fillColor=none;startSize=0;collapsible=0;recursiveResize=0;expand=0;" vertex="1" parent="211">
                    <mxGeometry x="158" width="118" height="120" as="geometry">
                        <mxRectangle width="118" height="120" as="alternateBounds"/>
                    </mxGeometry>
                </mxCell>
                <mxCell id="214" value="" style="swimlane;swimlaneHead=0;swimlaneBody=0;fontStyle=0;connectable=0;strokeColor=inherit;fillColor=none;startSize=0;collapsible=0;recursiveResize=0;expand=0;" vertex="1" parent="211">
                    <mxGeometry x="276" width="118" height="120" as="geometry">
                        <mxRectangle width="118" height="120" as="alternateBounds"/>
                    </mxGeometry>
                </mxCell>
                <mxCell id="215" value="" style="swimlane;swimlaneHead=0;swimlaneBody=0;fontStyle=0;connectable=0;strokeColor=inherit;fillColor=none;startSize=0;collapsible=0;recursiveResize=0;expand=0;" vertex="1" parent="211">
                    <mxGeometry x="394" width="118" height="120" as="geometry">
                        <mxRectangle width="118" height="120" as="alternateBounds"/>
                    </mxGeometry>
                </mxCell>
                <mxCell id="216" value="" style="swimlane;swimlaneHead=0;swimlaneBody=0;fontStyle=0;connectable=0;strokeColor=inherit;fillColor=none;startSize=0;collapsible=0;recursiveResize=0;expand=0;" vertex="1" parent="211">
                    <mxGeometry x="512" width="117" height="120" as="geometry">
                        <mxRectangle width="117" height="120" as="alternateBounds"/>
                    </mxGeometry>
                </mxCell>
                <mxCell id="217" value="" style="swimlane;swimlaneHead=0;swimlaneBody=0;fontStyle=0;connectable=0;strokeColor=inherit;fillColor=none;startSize=0;collapsible=0;recursiveResize=0;expand=0;" vertex="1" parent="211">
                    <mxGeometry x="629" width="118" height="120" as="geometry">
                        <mxRectangle width="118" height="120" as="alternateBounds"/>
                    </mxGeometry>
                </mxCell>
                <mxCell id="218" value="" style="swimlane;swimlaneHead=0;swimlaneBody=0;fontStyle=0;connectable=0;strokeColor=inherit;fillColor=none;startSize=0;collapsible=0;recursiveResize=0;expand=0;" vertex="1" parent="211">
                    <mxGeometry x="747" width="118" height="120" as="geometry">
                        <mxRectangle width="118" height="120" as="alternateBounds"/>
                    </mxGeometry>
                </mxCell>
                <mxCell id="219" value="" style="swimlane;swimlaneHead=0;swimlaneBody=0;fontStyle=0;connectable=0;strokeColor=inherit;fillColor=none;startSize=0;collapsible=0;recursiveResize=0;expand=0;" vertex="1" parent="211">
                    <mxGeometry x="865" width="118" height="120" as="geometry">
                        <mxRectangle width="118" height="120" as="alternateBounds"/>
                    </mxGeometry>
                </mxCell>
                <mxCell id="220" value="" style="swimlane;swimlaneHead=0;swimlaneBody=0;fontStyle=0;connectable=0;strokeColor=inherit;fillColor=none;startSize=0;collapsible=0;recursiveResize=0;expand=0;" vertex="1" parent="211">
                    <mxGeometry x="983" width="118" height="120" as="geometry">
                        <mxRectangle width="118" height="120" as="alternateBounds"/>
                    </mxGeometry>
                </mxCell>
                <mxCell id="221" value="" style="swimlane;swimlaneHead=0;swimlaneBody=0;fontStyle=0;connectable=0;strokeColor=inherit;fillColor=none;startSize=0;collapsible=0;recursiveResize=0;expand=0;" vertex="1" parent="211">
                    <mxGeometry x="1101" width="118" height="120" as="geometry">
                        <mxRectangle width="118" height="120" as="alternateBounds"/>
                    </mxGeometry>
                </mxCell>
                <mxCell id="222" value="" style="swimlane;swimlaneHead=0;swimlaneBody=0;fontStyle=0;connectable=0;strokeColor=inherit;fillColor=none;startSize=0;collapsible=0;recursiveResize=0;expand=0;" vertex="1" parent="211">
                    <mxGeometry x="1219" width="118" height="120" as="geometry">
                        <mxRectangle width="118" height="120" as="alternateBounds"/>
                    </mxGeometry>
                </mxCell>
                <mxCell id="223" value="" style="swimlane;swimlaneHead=0;swimlaneBody=0;fontStyle=0;connectable=0;strokeColor=inherit;fillColor=none;startSize=0;collapsible=0;recursiveResize=0;expand=0;" vertex="1" parent="211">
                    <mxGeometry x="1337" width="118" height="120" as="geometry">
                        <mxRectangle width="118" height="120" as="alternateBounds"/>
                    </mxGeometry>
                </mxCell>
                <mxCell id="224" value="" style="swimlane;swimlaneHead=0;swimlaneBody=0;fontStyle=0;connectable=0;strokeColor=inherit;fillColor=none;startSize=0;collapsible=0;recursiveResize=0;expand=0;" vertex="1" parent="211">
                    <mxGeometry x="1455" width="118" height="120" as="geometry">
                        <mxRectangle width="118" height="120" as="alternateBounds"/>
                    </mxGeometry>
                </mxCell>
                <mxCell id="225" value="" style="swimlane;swimlaneHead=0;swimlaneBody=0;fontStyle=0;connectable=0;strokeColor=inherit;fillColor=none;startSize=0;collapsible=0;recursiveResize=0;expand=0;" vertex="1" parent="211">
                    <mxGeometry x="1573" width="118" height="120" as="geometry">
                        <mxRectangle width="118" height="120" as="alternateBounds"/>
                    </mxGeometry>
                </mxCell>
                <mxCell id="226" value="" style="swimlane;swimlaneHead=0;swimlaneBody=0;fontStyle=0;connectable=0;strokeColor=inherit;fillColor=none;startSize=0;collapsible=0;recursiveResize=0;expand=0;" vertex="1" parent="211">
                    <mxGeometry x="1691" width="117" height="120" as="geometry">
                        <mxRectangle width="117" height="120" as="alternateBounds"/>
                    </mxGeometry>
                </mxCell>
                <mxCell id="227" value="" style="swimlane;swimlaneHead=0;swimlaneBody=0;fontStyle=0;connectable=0;strokeColor=inherit;fillColor=none;startSize=0;collapsible=0;recursiveResize=0;expand=0;" vertex="1" parent="211">
                    <mxGeometry x="1808" width="118" height="120" as="geometry">
                        <mxRectangle width="118" height="120" as="alternateBounds"/>
                    </mxGeometry>
                </mxCell>
                <mxCell id="228" value="" style="swimlane;swimlaneHead=0;swimlaneBody=0;fontStyle=0;connectable=0;strokeColor=inherit;fillColor=none;startSize=0;collapsible=0;recursiveResize=0;expand=0;" vertex="1" parent="211">
                    <mxGeometry x="1926" width="118" height="120" as="geometry">
                        <mxRectangle width="118" height="120" as="alternateBounds"/>
                    </mxGeometry>
                </mxCell>
                <mxCell id="229" value="" style="swimlane;swimlaneHead=0;swimlaneBody=0;fontStyle=0;connectable=0;strokeColor=inherit;fillColor=none;startSize=0;collapsible=0;recursiveResize=0;expand=0;" vertex="1" parent="211">
                    <mxGeometry x="2044" width="118" height="120" as="geometry">
                        <mxRectangle width="118" height="120" as="alternateBounds"/>
                    </mxGeometry>
                </mxCell>
                <mxCell id="230" value="" style="swimlane;swimlaneHead=0;swimlaneBody=0;fontStyle=0;connectable=0;strokeColor=inherit;fillColor=none;startSize=0;collapsible=0;recursiveResize=0;expand=0;" vertex="1" parent="211">
                    <mxGeometry x="2162" width="118" height="120" as="geometry">
                        <mxRectangle width="118" height="120" as="alternateBounds"/>
                    </mxGeometry>
                </mxCell>
                <mxCell id="231" value="" style="shape=tableRow;horizontal=0;swimlaneHead=0;swimlaneBody=0;top=0;left=0;strokeColor=inherit;bottom=0;right=0;dropTarget=0;fontStyle=0;fillColor=none;points=[[0,0.5],[1,0.5]];portConstraint=eastwest;startSize=40;collapsible=0;recursiveResize=0;expand=0;" vertex="1" parent="150">
                    <mxGeometry y="480" width="2280" height="120" as="geometry"/>
                </mxCell>
                <mxCell id="232" value="" style="swimlane;swimlaneHead=0;swimlaneBody=0;fontStyle=0;connectable=0;strokeColor=inherit;fillColor=none;startSize=0;collapsible=0;recursiveResize=0;expand=0;" vertex="1" parent="231">
                    <mxGeometry x="40" width="118" height="120" as="geometry">
                        <mxRectangle width="118" height="120" as="alternateBounds"/>
                    </mxGeometry>
                </mxCell>
                <mxCell id="233" value="" style="swimlane;swimlaneHead=0;swimlaneBody=0;fontStyle=0;connectable=0;strokeColor=inherit;fillColor=none;startSize=0;collapsible=0;recursiveResize=0;expand=0;" vertex="1" parent="231">
                    <mxGeometry x="158" width="118" height="120" as="geometry">
                        <mxRectangle width="118" height="120" as="alternateBounds"/>
                    </mxGeometry>
                </mxCell>
                <mxCell id="234" value="" style="swimlane;swimlaneHead=0;swimlaneBody=0;fontStyle=0;connectable=0;strokeColor=inherit;fillColor=none;startSize=0;collapsible=0;recursiveResize=0;expand=0;" vertex="1" parent="231">
                    <mxGeometry x="276" width="118" height="120" as="geometry">
                        <mxRectangle width="118" height="120" as="alternateBounds"/>
                    </mxGeometry>
                </mxCell>
                <mxCell id="235" value="" style="swimlane;swimlaneHead=0;swimlaneBody=0;fontStyle=0;connectable=0;strokeColor=inherit;fillColor=none;startSize=0;collapsible=0;recursiveResize=0;expand=0;" vertex="1" parent="231">
                    <mxGeometry x="394" width="118" height="120" as="geometry">
                        <mxRectangle width="118" height="120" as="alternateBounds"/>
                    </mxGeometry>
                </mxCell>
                <mxCell id="236" value="" style="swimlane;swimlaneHead=0;swimlaneBody=0;fontStyle=0;connectable=0;strokeColor=inherit;fillColor=none;startSize=0;collapsible=0;recursiveResize=0;expand=0;" vertex="1" parent="231">
                    <mxGeometry x="512" width="117" height="120" as="geometry">
                        <mxRectangle width="117" height="120" as="alternateBounds"/>
                    </mxGeometry>
                </mxCell>
                <mxCell id="237" value="" style="swimlane;swimlaneHead=0;swimlaneBody=0;fontStyle=0;connectable=0;strokeColor=inherit;fillColor=none;startSize=0;collapsible=0;recursiveResize=0;expand=0;" vertex="1" parent="231">
                    <mxGeometry x="629" width="118" height="120" as="geometry">
                        <mxRectangle width="118" height="120" as="alternateBounds"/>
                    </mxGeometry>
                </mxCell>
                <mxCell id="238" value="" style="swimlane;swimlaneHead=0;swimlaneBody=0;fontStyle=0;connectable=0;strokeColor=inherit;fillColor=none;startSize=0;collapsible=0;recursiveResize=0;expand=0;" vertex="1" parent="231">
                    <mxGeometry x="747" width="118" height="120" as="geometry">
                        <mxRectangle width="118" height="120" as="alternateBounds"/>
                    </mxGeometry>
                </mxCell>
                <mxCell id="239" value="" style="swimlane;swimlaneHead=0;swimlaneBody=0;fontStyle=0;connectable=0;strokeColor=inherit;fillColor=none;startSize=0;collapsible=0;recursiveResize=0;expand=0;" vertex="1" parent="231">
                    <mxGeometry x="865" width="118" height="120" as="geometry">
                        <mxRectangle width="118" height="120" as="alternateBounds"/>
                    </mxGeometry>
                </mxCell>
                <mxCell id="240" value="" style="swimlane;swimlaneHead=0;swimlaneBody=0;fontStyle=0;connectable=0;strokeColor=inherit;fillColor=none;startSize=0;collapsible=0;recursiveResize=0;expand=0;" vertex="1" parent="231">
                    <mxGeometry x="983" width="118" height="120" as="geometry">
                        <mxRectangle width="118" height="120" as="alternateBounds"/>
                    </mxGeometry>
                </mxCell>
                <mxCell id="241" value="" style="swimlane;swimlaneHead=0;swimlaneBody=0;fontStyle=0;connectable=0;strokeColor=inherit;fillColor=none;startSize=0;collapsible=0;recursiveResize=0;expand=0;" vertex="1" parent="231">
                    <mxGeometry x="1101" width="118" height="120" as="geometry">
                        <mxRectangle width="118" height="120" as="alternateBounds"/>
                    </mxGeometry>
                </mxCell>
                <mxCell id="242" value="" style="swimlane;swimlaneHead=0;swimlaneBody=0;fontStyle=0;connectable=0;strokeColor=inherit;fillColor=none;startSize=0;collapsible=0;recursiveResize=0;expand=0;" vertex="1" parent="231">
                    <mxGeometry x="1219" width="118" height="120" as="geometry">
                        <mxRectangle width="118" height="120" as="alternateBounds"/>
                    </mxGeometry>
                </mxCell>
                <mxCell id="243" value="" style="swimlane;swimlaneHead=0;swimlaneBody=0;fontStyle=0;connectable=0;strokeColor=inherit;fillColor=none;startSize=0;collapsible=0;recursiveResize=0;expand=0;" vertex="1" parent="231">
                    <mxGeometry x="1337" width="118" height="120" as="geometry">
                        <mxRectangle width="118" height="120" as="alternateBounds"/>
                    </mxGeometry>
                </mxCell>
                <mxCell id="244" value="" style="swimlane;swimlaneHead=0;swimlaneBody=0;fontStyle=0;connectable=0;strokeColor=inherit;fillColor=none;startSize=0;collapsible=0;recursiveResize=0;expand=0;" vertex="1" parent="231">
                    <mxGeometry x="1455" width="118" height="120" as="geometry">
                        <mxRectangle width="118" height="120" as="alternateBounds"/>
                    </mxGeometry>
                </mxCell>
                <mxCell id="245" value="" style="swimlane;swimlaneHead=0;swimlaneBody=0;fontStyle=0;connectable=0;strokeColor=inherit;fillColor=none;startSize=0;collapsible=0;recursiveResize=0;expand=0;" vertex="1" parent="231">
                    <mxGeometry x="1573" width="118" height="120" as="geometry">
                        <mxRectangle width="118" height="120" as="alternateBounds"/>
                    </mxGeometry>
                </mxCell>
                <mxCell id="246" value="" style="swimlane;swimlaneHead=0;swimlaneBody=0;fontStyle=0;connectable=0;strokeColor=inherit;fillColor=none;startSize=0;collapsible=0;recursiveResize=0;expand=0;" vertex="1" parent="231">
                    <mxGeometry x="1691" width="117" height="120" as="geometry">
                        <mxRectangle width="117" height="120" as="alternateBounds"/>
                    </mxGeometry>
                </mxCell>
                <mxCell id="247" value="" style="swimlane;swimlaneHead=0;swimlaneBody=0;fontStyle=0;connectable=0;strokeColor=inherit;fillColor=none;startSize=0;collapsible=0;recursiveResize=0;expand=0;" vertex="1" parent="231">
                    <mxGeometry x="1808" width="118" height="120" as="geometry">
                        <mxRectangle width="118" height="120" as="alternateBounds"/>
                    </mxGeometry>
                </mxCell>
                <mxCell id="248" value="" style="swimlane;swimlaneHead=0;swimlaneBody=0;fontStyle=0;connectable=0;strokeColor=inherit;fillColor=none;startSize=0;collapsible=0;recursiveResize=0;expand=0;" vertex="1" parent="231">
                    <mxGeometry x="1926" width="118" height="120" as="geometry">
                        <mxRectangle width="118" height="120" as="alternateBounds"/>
                    </mxGeometry>
                </mxCell>
                <mxCell id="249" value="" style="swimlane;swimlaneHead=0;swimlaneBody=0;fontStyle=0;connectable=0;strokeColor=inherit;fillColor=none;startSize=0;collapsible=0;recursiveResize=0;expand=0;" vertex="1" parent="231">
                    <mxGeometry x="2044" width="118" height="120" as="geometry">
                        <mxRectangle width="118" height="120" as="alternateBounds"/>
                    </mxGeometry>
                </mxCell>
                <mxCell id="250" value="" style="swimlane;swimlaneHead=0;swimlaneBody=0;fontStyle=0;connectable=0;strokeColor=inherit;fillColor=none;startSize=0;collapsible=0;recursiveResize=0;expand=0;" vertex="1" parent="231">
                    <mxGeometry x="2162" width="118" height="120" as="geometry">
                        <mxRectangle width="118" height="120" as="alternateBounds"/>
                    </mxGeometry>
                </mxCell>
                <mxCell id="251" value="" style="shape=tableRow;horizontal=0;swimlaneHead=0;swimlaneBody=0;top=0;left=0;strokeColor=inherit;bottom=0;right=0;dropTarget=0;fontStyle=0;fillColor=none;points=[[0,0.5],[1,0.5]];portConstraint=eastwest;startSize=40;collapsible=0;recursiveResize=0;expand=0;" vertex="1" parent="150">
                    <mxGeometry y="600" width="2280" height="120" as="geometry"/>
                </mxCell>
                <mxCell id="252" value="" style="swimlane;swimlaneHead=0;swimlaneBody=0;fontStyle=0;connectable=0;strokeColor=inherit;fillColor=none;startSize=0;collapsible=0;recursiveResize=0;expand=0;" vertex="1" parent="251">
                    <mxGeometry x="40" width="118" height="120" as="geometry">
                        <mxRectangle width="118" height="120" as="alternateBounds"/>
                    </mxGeometry>
                </mxCell>
                <mxCell id="253" value="" style="swimlane;swimlaneHead=0;swimlaneBody=0;fontStyle=0;connectable=0;strokeColor=inherit;fillColor=none;startSize=0;collapsible=0;recursiveResize=0;expand=0;" vertex="1" parent="251">
                    <mxGeometry x="158" width="118" height="120" as="geometry">
                        <mxRectangle width="118" height="120" as="alternateBounds"/>
                    </mxGeometry>
                </mxCell>
                <mxCell id="254" value="" style="swimlane;swimlaneHead=0;swimlaneBody=0;fontStyle=0;connectable=0;strokeColor=inherit;fillColor=none;startSize=0;collapsible=0;recursiveResize=0;expand=0;" vertex="1" parent="251">
                    <mxGeometry x="276" width="118" height="120" as="geometry">
                        <mxRectangle width="118" height="120" as="alternateBounds"/>
                    </mxGeometry>
                </mxCell>
                <mxCell id="255" value="" style="swimlane;swimlaneHead=0;swimlaneBody=0;fontStyle=0;connectable=0;strokeColor=inherit;fillColor=none;startSize=0;collapsible=0;recursiveResize=0;expand=0;" vertex="1" parent="251">
                    <mxGeometry x="394" width="118" height="120" as="geometry">
                        <mxRectangle width="118" height="120" as="alternateBounds"/>
                    </mxGeometry>
                </mxCell>
                <mxCell id="256" value="" style="swimlane;swimlaneHead=0;swimlaneBody=0;fontStyle=0;connectable=0;strokeColor=inherit;fillColor=none;startSize=0;collapsible=0;recursiveResize=0;expand=0;" vertex="1" parent="251">
                    <mxGeometry x="512" width="117" height="120" as="geometry">
                        <mxRectangle width="117" height="120" as="alternateBounds"/>
                    </mxGeometry>
                </mxCell>
                <mxCell id="257" value="" style="swimlane;swimlaneHead=0;swimlaneBody=0;fontStyle=0;connectable=0;strokeColor=inherit;fillColor=none;startSize=0;collapsible=0;recursiveResize=0;expand=0;" vertex="1" parent="251">
                    <mxGeometry x="629" width="118" height="120" as="geometry">
                        <mxRectangle width="118" height="120" as="alternateBounds"/>
                    </mxGeometry>
                </mxCell>
                <mxCell id="258" value="" style="swimlane;swimlaneHead=0;swimlaneBody=0;fontStyle=0;connectable=0;strokeColor=inherit;fillColor=none;startSize=0;collapsible=0;recursiveResize=0;expand=0;" vertex="1" parent="251">
                    <mxGeometry x="747" width="118" height="120" as="geometry">
                        <mxRectangle width="118" height="120" as="alternateBounds"/>
                    </mxGeometry>
                </mxCell>
                <mxCell id="259" value="" style="swimlane;swimlaneHead=0;swimlaneBody=0;fontStyle=0;connectable=0;strokeColor=inherit;fillColor=none;startSize=0;collapsible=0;recursiveResize=0;expand=0;" vertex="1" parent="251">
                    <mxGeometry x="865" width="118" height="120" as="geometry">
                        <mxRectangle width="118" height="120" as="alternateBounds"/>
                    </mxGeometry>
                </mxCell>
                <mxCell id="260" value="" style="swimlane;swimlaneHead=0;swimlaneBody=0;fontStyle=0;connectable=0;strokeColor=inherit;fillColor=none;startSize=0;collapsible=0;recursiveResize=0;expand=0;" vertex="1" parent="251">
                    <mxGeometry x="983" width="118" height="120" as="geometry">
                        <mxRectangle width="118" height="120" as="alternateBounds"/>
                    </mxGeometry>
                </mxCell>
                <mxCell id="261" value="" style="swimlane;swimlaneHead=0;swimlaneBody=0;fontStyle=0;connectable=0;strokeColor=inherit;fillColor=none;startSize=0;collapsible=0;recursiveResize=0;expand=0;" vertex="1" parent="251">
                    <mxGeometry x="1101" width="118" height="120" as="geometry">
                        <mxRectangle width="118" height="120" as="alternateBounds"/>
                    </mxGeometry>
                </mxCell>
                <mxCell id="262" value="" style="swimlane;swimlaneHead=0;swimlaneBody=0;fontStyle=0;connectable=0;strokeColor=inherit;fillColor=none;startSize=0;collapsible=0;recursiveResize=0;expand=0;" vertex="1" parent="251">
                    <mxGeometry x="1219" width="118" height="120" as="geometry">
                        <mxRectangle width="118" height="120" as="alternateBounds"/>
                    </mxGeometry>
                </mxCell>
                <mxCell id="263" value="" style="swimlane;swimlaneHead=0;swimlaneBody=0;fontStyle=0;connectable=0;strokeColor=inherit;fillColor=none;startSize=0;collapsible=0;recursiveResize=0;expand=0;" vertex="1" parent="251">
                    <mxGeometry x="1337" width="118" height="120" as="geometry">
                        <mxRectangle width="118" height="120" as="alternateBounds"/>
                    </mxGeometry>
                </mxCell>
                <mxCell id="264" value="" style="swimlane;swimlaneHead=0;swimlaneBody=0;fontStyle=0;connectable=0;strokeColor=inherit;fillColor=none;startSize=0;collapsible=0;recursiveResize=0;expand=0;" vertex="1" parent="251">
                    <mxGeometry x="1455" width="118" height="120" as="geometry">
                        <mxRectangle width="118" height="120" as="alternateBounds"/>
                    </mxGeometry>
                </mxCell>
                <mxCell id="265" value="" style="swimlane;swimlaneHead=0;swimlaneBody=0;fontStyle=0;connectable=0;strokeColor=inherit;fillColor=none;startSize=0;collapsible=0;recursiveResize=0;expand=0;" vertex="1" parent="251">
                    <mxGeometry x="1573" width="118" height="120" as="geometry">
                        <mxRectangle width="118" height="120" as="alternateBounds"/>
                    </mxGeometry>
                </mxCell>
                <mxCell id="266" value="" style="swimlane;swimlaneHead=0;swimlaneBody=0;fontStyle=0;connectable=0;strokeColor=inherit;fillColor=none;startSize=0;collapsible=0;recursiveResize=0;expand=0;" vertex="1" parent="251">
                    <mxGeometry x="1691" width="117" height="120" as="geometry">
                        <mxRectangle width="117" height="120" as="alternateBounds"/>
                    </mxGeometry>
                </mxCell>
                <mxCell id="267" value="" style="swimlane;swimlaneHead=0;swimlaneBody=0;fontStyle=0;connectable=0;strokeColor=inherit;fillColor=none;startSize=0;collapsible=0;recursiveResize=0;expand=0;" vertex="1" parent="251">
                    <mxGeometry x="1808" width="118" height="120" as="geometry">
                        <mxRectangle width="118" height="120" as="alternateBounds"/>
                    </mxGeometry>
                </mxCell>
                <mxCell id="268" value="" style="swimlane;swimlaneHead=0;swimlaneBody=0;fontStyle=0;connectable=0;strokeColor=inherit;fillColor=none;startSize=0;collapsible=0;recursiveResize=0;expand=0;" vertex="1" parent="251">
                    <mxGeometry x="1926" width="118" height="120" as="geometry">
                        <mxRectangle width="118" height="120" as="alternateBounds"/>
                    </mxGeometry>
                </mxCell>
                <mxCell id="269" value="" style="swimlane;swimlaneHead=0;swimlaneBody=0;fontStyle=0;connectable=0;strokeColor=inherit;fillColor=none;startSize=0;collapsible=0;recursiveResize=0;expand=0;" vertex="1" parent="251">
                    <mxGeometry x="2044" width="118" height="120" as="geometry">
                        <mxRectangle width="118" height="120" as="alternateBounds"/>
                    </mxGeometry>
                </mxCell>
                <mxCell id="270" value="" style="swimlane;swimlaneHead=0;swimlaneBody=0;fontStyle=0;connectable=0;strokeColor=inherit;fillColor=none;startSize=0;collapsible=0;recursiveResize=0;expand=0;" vertex="1" parent="251">
                    <mxGeometry x="2162" width="118" height="120" as="geometry">
                        <mxRectangle width="118" height="120" as="alternateBounds"/>
                    </mxGeometry>
                </mxCell>
                <mxCell id="271" value="" style="shape=tableRow;horizontal=0;swimlaneHead=0;swimlaneBody=0;top=0;left=0;strokeColor=inherit;bottom=0;right=0;dropTarget=0;fontStyle=0;fillColor=none;points=[[0,0.5],[1,0.5]];portConstraint=eastwest;startSize=40;collapsible=0;recursiveResize=0;expand=0;" vertex="1" parent="150">
                    <mxGeometry y="720" width="2280" height="120" as="geometry"/>
                </mxCell>
                <mxCell id="272" value="" style="swimlane;swimlaneHead=0;swimlaneBody=0;fontStyle=0;connectable=0;strokeColor=inherit;fillColor=none;startSize=0;collapsible=0;recursiveResize=0;expand=0;" vertex="1" parent="271">
                    <mxGeometry x="40" width="118" height="120" as="geometry">
                        <mxRectangle width="118" height="120" as="alternateBounds"/>
                    </mxGeometry>
                </mxCell>
                <mxCell id="273" value="" style="swimlane;swimlaneHead=0;swimlaneBody=0;fontStyle=0;connectable=0;strokeColor=inherit;fillColor=none;startSize=0;collapsible=0;recursiveResize=0;expand=0;" vertex="1" parent="271">
                    <mxGeometry x="158" width="118" height="120" as="geometry">
                        <mxRectangle width="118" height="120" as="alternateBounds"/>
                    </mxGeometry>
                </mxCell>
                <mxCell id="274" value="" style="swimlane;swimlaneHead=0;swimlaneBody=0;fontStyle=0;connectable=0;strokeColor=inherit;fillColor=none;startSize=0;collapsible=0;recursiveResize=0;expand=0;" vertex="1" parent="271">
                    <mxGeometry x="276" width="118" height="120" as="geometry">
                        <mxRectangle width="118" height="120" as="alternateBounds"/>
                    </mxGeometry>
                </mxCell>
                <mxCell id="275" value="" style="swimlane;swimlaneHead=0;swimlaneBody=0;fontStyle=0;connectable=0;strokeColor=inherit;fillColor=none;startSize=0;collapsible=0;recursiveResize=0;expand=0;" vertex="1" parent="271">
                    <mxGeometry x="394" width="118" height="120" as="geometry">
                        <mxRectangle width="118" height="120" as="alternateBounds"/>
                    </mxGeometry>
                </mxCell>
                <mxCell id="276" value="" style="swimlane;swimlaneHead=0;swimlaneBody=0;fontStyle=0;connectable=0;strokeColor=inherit;fillColor=none;startSize=0;collapsible=0;recursiveResize=0;expand=0;" vertex="1" parent="271">
                    <mxGeometry x="512" width="117" height="120" as="geometry">
                        <mxRectangle width="117" height="120" as="alternateBounds"/>
                    </mxGeometry>
                </mxCell>
                <mxCell id="277" value="" style="swimlane;swimlaneHead=0;swimlaneBody=0;fontStyle=0;connectable=0;strokeColor=inherit;fillColor=none;startSize=0;collapsible=0;recursiveResize=0;expand=0;" vertex="1" parent="271">
                    <mxGeometry x="629" width="118" height="120" as="geometry">
                        <mxRectangle width="118" height="120" as="alternateBounds"/>
                    </mxGeometry>
                </mxCell>
                <mxCell id="278" value="" style="swimlane;swimlaneHead=0;swimlaneBody=0;fontStyle=0;connectable=0;strokeColor=inherit;fillColor=none;startSize=0;collapsible=0;recursiveResize=0;expand=0;" vertex="1" parent="271">
                    <mxGeometry x="747" width="118" height="120" as="geometry">
                        <mxRectangle width="118" height="120" as="alternateBounds"/>
                    </mxGeometry>
                </mxCell>
                <mxCell id="279" value="" style="swimlane;swimlaneHead=0;swimlaneBody=0;fontStyle=0;connectable=0;strokeColor=inherit;fillColor=none;startSize=0;collapsible=0;recursiveResize=0;expand=0;" vertex="1" parent="271">
                    <mxGeometry x="865" width="118" height="120" as="geometry">
                        <mxRectangle width="118" height="120" as="alternateBounds"/>
                    </mxGeometry>
                </mxCell>
                <mxCell id="280" value="" style="swimlane;swimlaneHead=0;swimlaneBody=0;fontStyle=0;connectable=0;strokeColor=inherit;fillColor=none;startSize=0;collapsible=0;recursiveResize=0;expand=0;" vertex="1" parent="271">
                    <mxGeometry x="983" width="118" height="120" as="geometry">
                        <mxRectangle width="118" height="120" as="alternateBounds"/>
                    </mxGeometry>
                </mxCell>
                <mxCell id="281" value="" style="swimlane;swimlaneHead=0;swimlaneBody=0;fontStyle=0;connectable=0;strokeColor=inherit;fillColor=none;startSize=0;collapsible=0;recursiveResize=0;expand=0;" vertex="1" parent="271">
                    <mxGeometry x="1101" width="118" height="120" as="geometry">
                        <mxRectangle width="118" height="120" as="alternateBounds"/>
                    </mxGeometry>
                </mxCell>
                <mxCell id="282" value="" style="swimlane;swimlaneHead=0;swimlaneBody=0;fontStyle=0;connectable=0;strokeColor=inherit;fillColor=none;startSize=0;collapsible=0;recursiveResize=0;expand=0;" vertex="1" parent="271">
                    <mxGeometry x="1219" width="118" height="120" as="geometry">
                        <mxRectangle width="118" height="120" as="alternateBounds"/>
                    </mxGeometry>
                </mxCell>
                <mxCell id="283" value="" style="swimlane;swimlaneHead=0;swimlaneBody=0;fontStyle=0;connectable=0;strokeColor=inherit;fillColor=none;startSize=0;collapsible=0;recursiveResize=0;expand=0;" vertex="1" parent="271">
                    <mxGeometry x="1337" width="118" height="120" as="geometry">
                        <mxRectangle width="118" height="120" as="alternateBounds"/>
                    </mxGeometry>
                </mxCell>
                <mxCell id="284" value="" style="swimlane;swimlaneHead=0;swimlaneBody=0;fontStyle=0;connectable=0;strokeColor=inherit;fillColor=none;startSize=0;collapsible=0;recursiveResize=0;expand=0;" vertex="1" parent="271">
                    <mxGeometry x="1455" width="118" height="120" as="geometry">
                        <mxRectangle width="118" height="120" as="alternateBounds"/>
                    </mxGeometry>
                </mxCell>
                <mxCell id="285" value="" style="swimlane;swimlaneHead=0;swimlaneBody=0;fontStyle=0;connectable=0;strokeColor=inherit;fillColor=none;startSize=0;collapsible=0;recursiveResize=0;expand=0;" vertex="1" parent="271">
                    <mxGeometry x="1573" width="118" height="120" as="geometry">
                        <mxRectangle width="118" height="120" as="alternateBounds"/>
                    </mxGeometry>
                </mxCell>
                <mxCell id="286" value="" style="swimlane;swimlaneHead=0;swimlaneBody=0;fontStyle=0;connectable=0;strokeColor=inherit;fillColor=none;startSize=0;collapsible=0;recursiveResize=0;expand=0;" vertex="1" parent="271">
                    <mxGeometry x="1691" width="117" height="120" as="geometry">
                        <mxRectangle width="117" height="120" as="alternateBounds"/>
                    </mxGeometry>
                </mxCell>
                <mxCell id="287" value="" style="swimlane;swimlaneHead=0;swimlaneBody=0;fontStyle=0;connectable=0;strokeColor=inherit;fillColor=none;startSize=0;collapsible=0;recursiveResize=0;expand=0;" vertex="1" parent="271">
                    <mxGeometry x="1808" width="118" height="120" as="geometry">
                        <mxRectangle width="118" height="120" as="alternateBounds"/>
                    </mxGeometry>
                </mxCell>
                <mxCell id="288" value="" style="swimlane;swimlaneHead=0;swimlaneBody=0;fontStyle=0;connectable=0;strokeColor=inherit;fillColor=none;startSize=0;collapsible=0;recursiveResize=0;expand=0;" vertex="1" parent="271">
                    <mxGeometry x="1926" width="118" height="120" as="geometry">
                        <mxRectangle width="118" height="120" as="alternateBounds"/>
                    </mxGeometry>
                </mxCell>
                <mxCell id="289" value="" style="swimlane;swimlaneHead=0;swimlaneBody=0;fontStyle=0;connectable=0;strokeColor=inherit;fillColor=none;startSize=0;collapsible=0;recursiveResize=0;expand=0;" vertex="1" parent="271">
                    <mxGeometry x="2044" width="118" height="120" as="geometry">
                        <mxRectangle width="118" height="120" as="alternateBounds"/>
                    </mxGeometry>
                </mxCell>
                <mxCell id="290" value="" style="swimlane;swimlaneHead=0;swimlaneBody=0;fontStyle=0;connectable=0;strokeColor=inherit;fillColor=none;startSize=0;collapsible=0;recursiveResize=0;expand=0;" vertex="1" parent="271">
                    <mxGeometry x="2162" width="118" height="120" as="geometry">
                        <mxRectangle width="118" height="120" as="alternateBounds"/>
                    </mxGeometry>
                </mxCell>
                <mxCell id="291" value="" style="shape=tableRow;horizontal=0;swimlaneHead=0;swimlaneBody=0;top=0;left=0;strokeColor=inherit;bottom=0;right=0;dropTarget=0;fontStyle=0;fillColor=none;points=[[0,0.5],[1,0.5]];portConstraint=eastwest;startSize=40;collapsible=0;recursiveResize=0;expand=0;" vertex="1" parent="150">
                    <mxGeometry y="840" width="2280" height="120" as="geometry"/>
                </mxCell>
                <mxCell id="292" value="" style="swimlane;swimlaneHead=0;swimlaneBody=0;fontStyle=0;connectable=0;strokeColor=inherit;fillColor=none;startSize=0;collapsible=0;recursiveResize=0;expand=0;" vertex="1" parent="291">
                    <mxGeometry x="40" width="118" height="120" as="geometry">
                        <mxRectangle width="118" height="120" as="alternateBounds"/>
                    </mxGeometry>
                </mxCell>
                <mxCell id="293" value="" style="swimlane;swimlaneHead=0;swimlaneBody=0;fontStyle=0;connectable=0;strokeColor=inherit;fillColor=none;startSize=0;collapsible=0;recursiveResize=0;expand=0;" vertex="1" parent="291">
                    <mxGeometry x="158" width="118" height="120" as="geometry">
                        <mxRectangle width="118" height="120" as="alternateBounds"/>
                    </mxGeometry>
                </mxCell>
                <mxCell id="294" value="" style="swimlane;swimlaneHead=0;swimlaneBody=0;fontStyle=0;connectable=0;strokeColor=inherit;fillColor=none;startSize=0;collapsible=0;recursiveResize=0;expand=0;" vertex="1" parent="291">
                    <mxGeometry x="276" width="118" height="120" as="geometry">
                        <mxRectangle width="118" height="120" as="alternateBounds"/>
                    </mxGeometry>
                </mxCell>
                <mxCell id="295" value="" style="swimlane;swimlaneHead=0;swimlaneBody=0;fontStyle=0;connectable=0;strokeColor=inherit;fillColor=none;startSize=0;collapsible=0;recursiveResize=0;expand=0;" vertex="1" parent="291">
                    <mxGeometry x="394" width="118" height="120" as="geometry">
                        <mxRectangle width="118" height="120" as="alternateBounds"/>
                    </mxGeometry>
                </mxCell>
                <mxCell id="552" value="" style="endArrow=none;dashed=1;html=1;" edge="1" parent="295">
                    <mxGeometry width="50" height="50" relative="1" as="geometry">
                        <mxPoint x="96" y="110" as="sourcePoint"/>
                        <mxPoint x="146" y="60" as="targetPoint"/>
                        <Array as="points">
                            <mxPoint x="106" y="-460"/>
                        </Array>
                    </mxGeometry>
                </mxCell>
                <mxCell id="296" value="" style="swimlane;swimlaneHead=0;swimlaneBody=0;fontStyle=0;connectable=0;strokeColor=inherit;fillColor=none;startSize=0;collapsible=0;recursiveResize=0;expand=0;" vertex="1" parent="291">
                    <mxGeometry x="512" width="117" height="120" as="geometry">
                        <mxRectangle width="117" height="120" as="alternateBounds"/>
                    </mxGeometry>
                </mxCell>
                <mxCell id="297" value="" style="swimlane;swimlaneHead=0;swimlaneBody=0;fontStyle=0;connectable=0;strokeColor=inherit;fillColor=none;startSize=0;collapsible=0;recursiveResize=0;expand=0;" vertex="1" parent="291">
                    <mxGeometry x="629" width="118" height="120" as="geometry">
                        <mxRectangle width="118" height="120" as="alternateBounds"/>
                    </mxGeometry>
                </mxCell>
                <mxCell id="298" value="" style="swimlane;swimlaneHead=0;swimlaneBody=0;fontStyle=0;connectable=0;strokeColor=inherit;fillColor=none;startSize=0;collapsible=0;recursiveResize=0;expand=0;" vertex="1" parent="291">
                    <mxGeometry x="747" width="118" height="120" as="geometry">
                        <mxRectangle width="118" height="120" as="alternateBounds"/>
                    </mxGeometry>
                </mxCell>
                <mxCell id="299" value="" style="swimlane;swimlaneHead=0;swimlaneBody=0;fontStyle=0;connectable=0;strokeColor=inherit;fillColor=none;startSize=0;collapsible=0;recursiveResize=0;expand=0;" vertex="1" parent="291">
                    <mxGeometry x="865" width="118" height="120" as="geometry">
                        <mxRectangle width="118" height="120" as="alternateBounds"/>
                    </mxGeometry>
                </mxCell>
                <mxCell id="300" value="" style="swimlane;swimlaneHead=0;swimlaneBody=0;fontStyle=0;connectable=0;strokeColor=inherit;fillColor=none;startSize=0;collapsible=0;recursiveResize=0;expand=0;" vertex="1" parent="291">
                    <mxGeometry x="983" width="118" height="120" as="geometry">
                        <mxRectangle width="118" height="120" as="alternateBounds"/>
                    </mxGeometry>
                </mxCell>
                <mxCell id="301" value="" style="swimlane;swimlaneHead=0;swimlaneBody=0;fontStyle=0;connectable=0;strokeColor=inherit;fillColor=none;startSize=0;collapsible=0;recursiveResize=0;expand=0;" vertex="1" parent="291">
                    <mxGeometry x="1101" width="118" height="120" as="geometry">
                        <mxRectangle width="118" height="120" as="alternateBounds"/>
                    </mxGeometry>
                </mxCell>
                <mxCell id="302" value="" style="swimlane;swimlaneHead=0;swimlaneBody=0;fontStyle=0;connectable=0;strokeColor=inherit;fillColor=none;startSize=0;collapsible=0;recursiveResize=0;expand=0;" vertex="1" parent="291">
                    <mxGeometry x="1219" width="118" height="120" as="geometry">
                        <mxRectangle width="118" height="120" as="alternateBounds"/>
                    </mxGeometry>
                </mxCell>
                <mxCell id="303" value="" style="swimlane;swimlaneHead=0;swimlaneBody=0;fontStyle=0;connectable=0;strokeColor=inherit;fillColor=none;startSize=0;collapsible=0;recursiveResize=0;expand=0;" vertex="1" parent="291">
                    <mxGeometry x="1337" width="118" height="120" as="geometry">
                        <mxRectangle width="118" height="120" as="alternateBounds"/>
                    </mxGeometry>
                </mxCell>
                <mxCell id="304" value="" style="swimlane;swimlaneHead=0;swimlaneBody=0;fontStyle=0;connectable=0;strokeColor=inherit;fillColor=none;startSize=0;collapsible=0;recursiveResize=0;expand=0;" vertex="1" parent="291">
                    <mxGeometry x="1455" width="118" height="120" as="geometry">
                        <mxRectangle width="118" height="120" as="alternateBounds"/>
                    </mxGeometry>
                </mxCell>
                <mxCell id="305" value="" style="swimlane;swimlaneHead=0;swimlaneBody=0;fontStyle=0;connectable=0;strokeColor=inherit;fillColor=none;startSize=0;collapsible=0;recursiveResize=0;expand=0;" vertex="1" parent="291">
                    <mxGeometry x="1573" width="118" height="120" as="geometry">
                        <mxRectangle width="118" height="120" as="alternateBounds"/>
                    </mxGeometry>
                </mxCell>
                <mxCell id="306" value="" style="swimlane;swimlaneHead=0;swimlaneBody=0;fontStyle=0;connectable=0;strokeColor=inherit;fillColor=none;startSize=0;collapsible=0;recursiveResize=0;expand=0;" vertex="1" parent="291">
                    <mxGeometry x="1691" width="117" height="120" as="geometry">
                        <mxRectangle width="117" height="120" as="alternateBounds"/>
                    </mxGeometry>
                </mxCell>
                <mxCell id="307" value="" style="swimlane;swimlaneHead=0;swimlaneBody=0;fontStyle=0;connectable=0;strokeColor=inherit;fillColor=none;startSize=0;collapsible=0;recursiveResize=0;expand=0;" vertex="1" parent="291">
                    <mxGeometry x="1808" width="118" height="120" as="geometry">
                        <mxRectangle width="118" height="120" as="alternateBounds"/>
                    </mxGeometry>
                </mxCell>
                <mxCell id="308" value="" style="swimlane;swimlaneHead=0;swimlaneBody=0;fontStyle=0;connectable=0;strokeColor=inherit;fillColor=none;startSize=0;collapsible=0;recursiveResize=0;expand=0;" vertex="1" parent="291">
                    <mxGeometry x="1926" width="118" height="120" as="geometry">
                        <mxRectangle width="118" height="120" as="alternateBounds"/>
                    </mxGeometry>
                </mxCell>
                <mxCell id="309" value="" style="swimlane;swimlaneHead=0;swimlaneBody=0;fontStyle=0;connectable=0;strokeColor=inherit;fillColor=none;startSize=0;collapsible=0;recursiveResize=0;expand=0;" vertex="1" parent="291">
                    <mxGeometry x="2044" width="118" height="120" as="geometry">
                        <mxRectangle width="118" height="120" as="alternateBounds"/>
                    </mxGeometry>
                </mxCell>
                <mxCell id="310" value="" style="swimlane;swimlaneHead=0;swimlaneBody=0;fontStyle=0;connectable=0;strokeColor=inherit;fillColor=none;startSize=0;collapsible=0;recursiveResize=0;expand=0;" vertex="1" parent="291">
                    <mxGeometry x="2162" width="118" height="120" as="geometry">
                        <mxRectangle width="118" height="120" as="alternateBounds"/>
                    </mxGeometry>
                </mxCell>
                <mxCell id="311" value="" style="shape=tableRow;horizontal=0;swimlaneHead=0;swimlaneBody=0;top=0;left=0;strokeColor=inherit;bottom=0;right=0;dropTarget=0;fontStyle=0;fillColor=none;points=[[0,0.5],[1,0.5]];portConstraint=eastwest;startSize=40;collapsible=0;recursiveResize=0;expand=0;" vertex="1" parent="150">
                    <mxGeometry y="960" width="2280" height="120" as="geometry"/>
                </mxCell>
                <mxCell id="312" value="" style="swimlane;swimlaneHead=0;swimlaneBody=0;fontStyle=0;connectable=0;strokeColor=inherit;fillColor=none;startSize=0;collapsible=0;recursiveResize=0;expand=0;" vertex="1" parent="311">
                    <mxGeometry x="40" width="118" height="120" as="geometry">
                        <mxRectangle width="118" height="120" as="alternateBounds"/>
                    </mxGeometry>
                </mxCell>
                <mxCell id="313" value="" style="swimlane;swimlaneHead=0;swimlaneBody=0;fontStyle=0;connectable=0;strokeColor=inherit;fillColor=none;startSize=0;collapsible=0;recursiveResize=0;expand=0;" vertex="1" parent="311">
                    <mxGeometry x="158" width="118" height="120" as="geometry">
                        <mxRectangle width="118" height="120" as="alternateBounds"/>
                    </mxGeometry>
                </mxCell>
                <mxCell id="314" value="" style="swimlane;swimlaneHead=0;swimlaneBody=0;fontStyle=0;connectable=0;strokeColor=inherit;fillColor=none;startSize=0;collapsible=0;recursiveResize=0;expand=0;" vertex="1" parent="311">
                    <mxGeometry x="276" width="118" height="120" as="geometry">
                        <mxRectangle width="118" height="120" as="alternateBounds"/>
                    </mxGeometry>
                </mxCell>
                <mxCell id="315" value="" style="swimlane;swimlaneHead=0;swimlaneBody=0;fontStyle=0;connectable=0;strokeColor=inherit;fillColor=none;startSize=0;collapsible=0;recursiveResize=0;expand=0;" vertex="1" parent="311">
                    <mxGeometry x="394" width="118" height="120" as="geometry">
                        <mxRectangle width="118" height="120" as="alternateBounds"/>
                    </mxGeometry>
                </mxCell>
                <mxCell id="316" value="" style="swimlane;swimlaneHead=0;swimlaneBody=0;fontStyle=0;connectable=0;strokeColor=inherit;fillColor=none;startSize=0;collapsible=0;recursiveResize=0;expand=0;" vertex="1" parent="311">
                    <mxGeometry x="512" width="117" height="120" as="geometry">
                        <mxRectangle width="117" height="120" as="alternateBounds"/>
                    </mxGeometry>
                </mxCell>
                <mxCell id="317" value="" style="swimlane;swimlaneHead=0;swimlaneBody=0;fontStyle=0;connectable=0;strokeColor=inherit;fillColor=none;startSize=0;collapsible=0;recursiveResize=0;expand=0;" vertex="1" parent="311">
                    <mxGeometry x="629" width="118" height="120" as="geometry">
                        <mxRectangle width="118" height="120" as="alternateBounds"/>
                    </mxGeometry>
                </mxCell>
                <mxCell id="318" value="" style="swimlane;swimlaneHead=0;swimlaneBody=0;fontStyle=0;connectable=0;strokeColor=inherit;fillColor=none;startSize=0;collapsible=0;recursiveResize=0;expand=0;" vertex="1" parent="311">
                    <mxGeometry x="747" width="118" height="120" as="geometry">
                        <mxRectangle width="118" height="120" as="alternateBounds"/>
                    </mxGeometry>
                </mxCell>
                <mxCell id="319" value="" style="swimlane;swimlaneHead=0;swimlaneBody=0;fontStyle=0;connectable=0;strokeColor=inherit;fillColor=none;startSize=0;collapsible=0;recursiveResize=0;expand=0;" vertex="1" parent="311">
                    <mxGeometry x="865" width="118" height="120" as="geometry">
                        <mxRectangle width="118" height="120" as="alternateBounds"/>
                    </mxGeometry>
                </mxCell>
                <mxCell id="320" value="" style="swimlane;swimlaneHead=0;swimlaneBody=0;fontStyle=0;connectable=0;strokeColor=inherit;fillColor=none;startSize=0;collapsible=0;recursiveResize=0;expand=0;" vertex="1" parent="311">
                    <mxGeometry x="983" width="118" height="120" as="geometry">
                        <mxRectangle width="118" height="120" as="alternateBounds"/>
                    </mxGeometry>
                </mxCell>
                <mxCell id="321" value="" style="swimlane;swimlaneHead=0;swimlaneBody=0;fontStyle=0;connectable=0;strokeColor=inherit;fillColor=none;startSize=0;collapsible=0;recursiveResize=0;expand=0;" vertex="1" parent="311">
                    <mxGeometry x="1101" width="118" height="120" as="geometry">
                        <mxRectangle width="118" height="120" as="alternateBounds"/>
                    </mxGeometry>
                </mxCell>
                <mxCell id="322" value="" style="swimlane;swimlaneHead=0;swimlaneBody=0;fontStyle=0;connectable=0;strokeColor=inherit;fillColor=none;startSize=0;collapsible=0;recursiveResize=0;expand=0;" vertex="1" parent="311">
                    <mxGeometry x="1219" width="118" height="120" as="geometry">
                        <mxRectangle width="118" height="120" as="alternateBounds"/>
                    </mxGeometry>
                </mxCell>
                <mxCell id="323" value="" style="swimlane;swimlaneHead=0;swimlaneBody=0;fontStyle=0;connectable=0;strokeColor=inherit;fillColor=none;startSize=0;collapsible=0;recursiveResize=0;expand=0;" vertex="1" parent="311">
                    <mxGeometry x="1337" width="118" height="120" as="geometry">
                        <mxRectangle width="118" height="120" as="alternateBounds"/>
                    </mxGeometry>
                </mxCell>
                <mxCell id="324" value="" style="swimlane;swimlaneHead=0;swimlaneBody=0;fontStyle=0;connectable=0;strokeColor=inherit;fillColor=none;startSize=0;collapsible=0;recursiveResize=0;expand=0;" vertex="1" parent="311">
                    <mxGeometry x="1455" width="118" height="120" as="geometry">
                        <mxRectangle width="118" height="120" as="alternateBounds"/>
                    </mxGeometry>
                </mxCell>
                <mxCell id="325" value="" style="swimlane;swimlaneHead=0;swimlaneBody=0;fontStyle=0;connectable=0;strokeColor=inherit;fillColor=none;startSize=0;collapsible=0;recursiveResize=0;expand=0;" vertex="1" parent="311">
                    <mxGeometry x="1573" width="118" height="120" as="geometry">
                        <mxRectangle width="118" height="120" as="alternateBounds"/>
                    </mxGeometry>
                </mxCell>
                <mxCell id="326" value="" style="swimlane;swimlaneHead=0;swimlaneBody=0;fontStyle=0;connectable=0;strokeColor=inherit;fillColor=none;startSize=0;collapsible=0;recursiveResize=0;expand=0;" vertex="1" parent="311">
                    <mxGeometry x="1691" width="117" height="120" as="geometry">
                        <mxRectangle width="117" height="120" as="alternateBounds"/>
                    </mxGeometry>
                </mxCell>
                <mxCell id="327" value="" style="swimlane;swimlaneHead=0;swimlaneBody=0;fontStyle=0;connectable=0;strokeColor=inherit;fillColor=none;startSize=0;collapsible=0;recursiveResize=0;expand=0;" vertex="1" parent="311">
                    <mxGeometry x="1808" width="118" height="120" as="geometry">
                        <mxRectangle width="118" height="120" as="alternateBounds"/>
                    </mxGeometry>
                </mxCell>
                <mxCell id="328" value="" style="swimlane;swimlaneHead=0;swimlaneBody=0;fontStyle=0;connectable=0;strokeColor=inherit;fillColor=none;startSize=0;collapsible=0;recursiveResize=0;expand=0;" vertex="1" parent="311">
                    <mxGeometry x="1926" width="118" height="120" as="geometry">
                        <mxRectangle width="118" height="120" as="alternateBounds"/>
                    </mxGeometry>
                </mxCell>
                <mxCell id="329" value="" style="swimlane;swimlaneHead=0;swimlaneBody=0;fontStyle=0;connectable=0;strokeColor=inherit;fillColor=none;startSize=0;collapsible=0;recursiveResize=0;expand=0;" vertex="1" parent="311">
                    <mxGeometry x="2044" width="118" height="120" as="geometry">
                        <mxRectangle width="118" height="120" as="alternateBounds"/>
                    </mxGeometry>
                </mxCell>
                <mxCell id="330" value="" style="swimlane;swimlaneHead=0;swimlaneBody=0;fontStyle=0;connectable=0;strokeColor=inherit;fillColor=none;startSize=0;collapsible=0;recursiveResize=0;expand=0;" vertex="1" parent="311">
                    <mxGeometry x="2162" width="118" height="120" as="geometry">
                        <mxRectangle width="118" height="120" as="alternateBounds"/>
                    </mxGeometry>
                </mxCell>
                <mxCell id="331" value="" style="shape=tableRow;horizontal=0;swimlaneHead=0;swimlaneBody=0;top=0;left=0;strokeColor=inherit;bottom=0;right=0;dropTarget=0;fontStyle=0;fillColor=none;points=[[0,0.5],[1,0.5]];portConstraint=eastwest;startSize=40;collapsible=0;recursiveResize=0;expand=0;" vertex="1" parent="150">
                    <mxGeometry y="1080" width="2280" height="120" as="geometry"/>
                </mxCell>
                <mxCell id="332" value="" style="swimlane;swimlaneHead=0;swimlaneBody=0;fontStyle=0;connectable=0;strokeColor=inherit;fillColor=none;startSize=0;collapsible=0;recursiveResize=0;expand=0;" vertex="1" parent="331">
                    <mxGeometry x="40" width="118" height="120" as="geometry">
                        <mxRectangle width="118" height="120" as="alternateBounds"/>
                    </mxGeometry>
                </mxCell>
                <mxCell id="333" value="" style="swimlane;swimlaneHead=0;swimlaneBody=0;fontStyle=0;connectable=0;strokeColor=inherit;fillColor=none;startSize=0;collapsible=0;recursiveResize=0;expand=0;" vertex="1" parent="331">
                    <mxGeometry x="158" width="118" height="120" as="geometry">
                        <mxRectangle width="118" height="120" as="alternateBounds"/>
                    </mxGeometry>
                </mxCell>
                <mxCell id="334" value="" style="swimlane;swimlaneHead=0;swimlaneBody=0;fontStyle=0;connectable=0;strokeColor=inherit;fillColor=none;startSize=0;collapsible=0;recursiveResize=0;expand=0;" vertex="1" parent="331">
                    <mxGeometry x="276" width="118" height="120" as="geometry">
                        <mxRectangle width="118" height="120" as="alternateBounds"/>
                    </mxGeometry>
                </mxCell>
                <mxCell id="335" value="" style="swimlane;swimlaneHead=0;swimlaneBody=0;fontStyle=0;connectable=0;strokeColor=inherit;fillColor=none;startSize=0;collapsible=0;recursiveResize=0;expand=0;" vertex="1" parent="331">
                    <mxGeometry x="394" width="118" height="120" as="geometry">
                        <mxRectangle width="118" height="120" as="alternateBounds"/>
                    </mxGeometry>
                </mxCell>
                <mxCell id="336" value="" style="swimlane;swimlaneHead=0;swimlaneBody=0;fontStyle=0;connectable=0;strokeColor=inherit;fillColor=none;startSize=0;collapsible=0;recursiveResize=0;expand=0;" vertex="1" parent="331">
                    <mxGeometry x="512" width="117" height="120" as="geometry">
                        <mxRectangle width="117" height="120" as="alternateBounds"/>
                    </mxGeometry>
                </mxCell>
                <mxCell id="337" value="" style="swimlane;swimlaneHead=0;swimlaneBody=0;fontStyle=0;connectable=0;strokeColor=inherit;fillColor=none;startSize=0;collapsible=0;recursiveResize=0;expand=0;" vertex="1" parent="331">
                    <mxGeometry x="629" width="118" height="120" as="geometry">
                        <mxRectangle width="118" height="120" as="alternateBounds"/>
                    </mxGeometry>
                </mxCell>
                <mxCell id="338" value="" style="swimlane;swimlaneHead=0;swimlaneBody=0;fontStyle=0;connectable=0;strokeColor=inherit;fillColor=none;startSize=0;collapsible=0;recursiveResize=0;expand=0;" vertex="1" parent="331">
                    <mxGeometry x="747" width="118" height="120" as="geometry">
                        <mxRectangle width="118" height="120" as="alternateBounds"/>
                    </mxGeometry>
                </mxCell>
                <mxCell id="339" value="" style="swimlane;swimlaneHead=0;swimlaneBody=0;fontStyle=0;connectable=0;strokeColor=inherit;fillColor=none;startSize=0;collapsible=0;recursiveResize=0;expand=0;" vertex="1" parent="331">
                    <mxGeometry x="865" width="118" height="120" as="geometry">
                        <mxRectangle width="118" height="120" as="alternateBounds"/>
                    </mxGeometry>
                </mxCell>
                <mxCell id="340" value="" style="swimlane;swimlaneHead=0;swimlaneBody=0;fontStyle=0;connectable=0;strokeColor=inherit;fillColor=none;startSize=0;collapsible=0;recursiveResize=0;expand=0;" vertex="1" parent="331">
                    <mxGeometry x="983" width="118" height="120" as="geometry">
                        <mxRectangle width="118" height="120" as="alternateBounds"/>
                    </mxGeometry>
                </mxCell>
                <mxCell id="341" value="" style="swimlane;swimlaneHead=0;swimlaneBody=0;fontStyle=0;connectable=0;strokeColor=inherit;fillColor=none;startSize=0;collapsible=0;recursiveResize=0;expand=0;" vertex="1" parent="331">
                    <mxGeometry x="1101" width="118" height="120" as="geometry">
                        <mxRectangle width="118" height="120" as="alternateBounds"/>
                    </mxGeometry>
                </mxCell>
                <mxCell id="342" value="" style="swimlane;swimlaneHead=0;swimlaneBody=0;fontStyle=0;connectable=0;strokeColor=inherit;fillColor=none;startSize=0;collapsible=0;recursiveResize=0;expand=0;" vertex="1" parent="331">
                    <mxGeometry x="1219" width="118" height="120" as="geometry">
                        <mxRectangle width="118" height="120" as="alternateBounds"/>
                    </mxGeometry>
                </mxCell>
                <mxCell id="343" value="" style="swimlane;swimlaneHead=0;swimlaneBody=0;fontStyle=0;connectable=0;strokeColor=inherit;fillColor=none;startSize=0;collapsible=0;recursiveResize=0;expand=0;" vertex="1" parent="331">
                    <mxGeometry x="1337" width="118" height="120" as="geometry">
                        <mxRectangle width="118" height="120" as="alternateBounds"/>
                    </mxGeometry>
                </mxCell>
                <mxCell id="344" value="" style="swimlane;swimlaneHead=0;swimlaneBody=0;fontStyle=0;connectable=0;strokeColor=inherit;fillColor=none;startSize=0;collapsible=0;recursiveResize=0;expand=0;" vertex="1" parent="331">
                    <mxGeometry x="1455" width="118" height="120" as="geometry">
                        <mxRectangle width="118" height="120" as="alternateBounds"/>
                    </mxGeometry>
                </mxCell>
                <mxCell id="345" value="" style="swimlane;swimlaneHead=0;swimlaneBody=0;fontStyle=0;connectable=0;strokeColor=inherit;fillColor=none;startSize=0;collapsible=0;recursiveResize=0;expand=0;" vertex="1" parent="331">
                    <mxGeometry x="1573" width="118" height="120" as="geometry">
                        <mxRectangle width="118" height="120" as="alternateBounds"/>
                    </mxGeometry>
                </mxCell>
                <mxCell id="346" value="" style="swimlane;swimlaneHead=0;swimlaneBody=0;fontStyle=0;connectable=0;strokeColor=inherit;fillColor=none;startSize=0;collapsible=0;recursiveResize=0;expand=0;" vertex="1" parent="331">
                    <mxGeometry x="1691" width="117" height="120" as="geometry">
                        <mxRectangle width="117" height="120" as="alternateBounds"/>
                    </mxGeometry>
                </mxCell>
                <mxCell id="347" value="" style="swimlane;swimlaneHead=0;swimlaneBody=0;fontStyle=0;connectable=0;strokeColor=inherit;fillColor=none;startSize=0;collapsible=0;recursiveResize=0;expand=0;" vertex="1" parent="331">
                    <mxGeometry x="1808" width="118" height="120" as="geometry">
                        <mxRectangle width="118" height="120" as="alternateBounds"/>
                    </mxGeometry>
                </mxCell>
                <mxCell id="348" value="" style="swimlane;swimlaneHead=0;swimlaneBody=0;fontStyle=0;connectable=0;strokeColor=inherit;fillColor=none;startSize=0;collapsible=0;recursiveResize=0;expand=0;" vertex="1" parent="331">
                    <mxGeometry x="1926" width="118" height="120" as="geometry">
                        <mxRectangle width="118" height="120" as="alternateBounds"/>
                    </mxGeometry>
                </mxCell>
                <mxCell id="349" value="" style="swimlane;swimlaneHead=0;swimlaneBody=0;fontStyle=0;connectable=0;strokeColor=inherit;fillColor=none;startSize=0;collapsible=0;recursiveResize=0;expand=0;" vertex="1" parent="331">
                    <mxGeometry x="2044" width="118" height="120" as="geometry">
                        <mxRectangle width="118" height="120" as="alternateBounds"/>
                    </mxGeometry>
                </mxCell>
                <mxCell id="350" value="" style="swimlane;swimlaneHead=0;swimlaneBody=0;fontStyle=0;connectable=0;strokeColor=inherit;fillColor=none;startSize=0;collapsible=0;recursiveResize=0;expand=0;" vertex="1" parent="331">
                    <mxGeometry x="2162" width="118" height="120" as="geometry">
                        <mxRectangle width="118" height="120" as="alternateBounds"/>
                    </mxGeometry>
                </mxCell>
                <mxCell id="351" value="" style="shape=tableRow;horizontal=0;swimlaneHead=0;swimlaneBody=0;top=0;left=0;strokeColor=inherit;bottom=0;right=0;dropTarget=0;fontStyle=0;fillColor=none;points=[[0,0.5],[1,0.5]];portConstraint=eastwest;startSize=40;collapsible=0;recursiveResize=0;expand=0;" vertex="1" parent="150">
                    <mxGeometry y="1200" width="2280" height="120" as="geometry"/>
                </mxCell>
                <mxCell id="352" value="" style="swimlane;swimlaneHead=0;swimlaneBody=0;fontStyle=0;connectable=0;strokeColor=inherit;fillColor=none;startSize=0;collapsible=0;recursiveResize=0;expand=0;" vertex="1" parent="351">
                    <mxGeometry x="40" width="118" height="120" as="geometry">
                        <mxRectangle width="118" height="120" as="alternateBounds"/>
                    </mxGeometry>
                </mxCell>
                <mxCell id="353" value="" style="swimlane;swimlaneHead=0;swimlaneBody=0;fontStyle=0;connectable=0;strokeColor=inherit;fillColor=none;startSize=0;collapsible=0;recursiveResize=0;expand=0;" vertex="1" parent="351">
                    <mxGeometry x="158" width="118" height="120" as="geometry">
                        <mxRectangle width="118" height="120" as="alternateBounds"/>
                    </mxGeometry>
                </mxCell>
                <mxCell id="354" value="" style="swimlane;swimlaneHead=0;swimlaneBody=0;fontStyle=0;connectable=0;strokeColor=inherit;fillColor=none;startSize=0;collapsible=0;recursiveResize=0;expand=0;" vertex="1" parent="351">
                    <mxGeometry x="276" width="118" height="120" as="geometry">
                        <mxRectangle width="118" height="120" as="alternateBounds"/>
                    </mxGeometry>
                </mxCell>
                <mxCell id="355" value="" style="swimlane;swimlaneHead=0;swimlaneBody=0;fontStyle=0;connectable=0;strokeColor=inherit;fillColor=none;startSize=0;collapsible=0;recursiveResize=0;expand=0;" vertex="1" parent="351">
                    <mxGeometry x="394" width="118" height="120" as="geometry">
                        <mxRectangle width="118" height="120" as="alternateBounds"/>
                    </mxGeometry>
                </mxCell>
                <mxCell id="356" value="" style="swimlane;swimlaneHead=0;swimlaneBody=0;fontStyle=0;connectable=0;strokeColor=inherit;fillColor=none;startSize=0;collapsible=0;recursiveResize=0;expand=0;" vertex="1" parent="351">
                    <mxGeometry x="512" width="117" height="120" as="geometry">
                        <mxRectangle width="117" height="120" as="alternateBounds"/>
                    </mxGeometry>
                </mxCell>
                <mxCell id="357" value="" style="swimlane;swimlaneHead=0;swimlaneBody=0;fontStyle=0;connectable=0;strokeColor=inherit;fillColor=none;startSize=0;collapsible=0;recursiveResize=0;expand=0;" vertex="1" parent="351">
                    <mxGeometry x="629" width="118" height="120" as="geometry">
                        <mxRectangle width="118" height="120" as="alternateBounds"/>
                    </mxGeometry>
                </mxCell>
                <mxCell id="358" value="" style="swimlane;swimlaneHead=0;swimlaneBody=0;fontStyle=0;connectable=0;strokeColor=inherit;fillColor=none;startSize=0;collapsible=0;recursiveResize=0;expand=0;" vertex="1" parent="351">
                    <mxGeometry x="747" width="118" height="120" as="geometry">
                        <mxRectangle width="118" height="120" as="alternateBounds"/>
                    </mxGeometry>
                </mxCell>
                <mxCell id="359" value="" style="swimlane;swimlaneHead=0;swimlaneBody=0;fontStyle=0;connectable=0;strokeColor=inherit;fillColor=none;startSize=0;collapsible=0;recursiveResize=0;expand=0;" vertex="1" parent="351">
                    <mxGeometry x="865" width="118" height="120" as="geometry">
                        <mxRectangle width="118" height="120" as="alternateBounds"/>
                    </mxGeometry>
                </mxCell>
                <mxCell id="360" value="" style="swimlane;swimlaneHead=0;swimlaneBody=0;fontStyle=0;connectable=0;strokeColor=inherit;fillColor=none;startSize=0;collapsible=0;recursiveResize=0;expand=0;" vertex="1" parent="351">
                    <mxGeometry x="983" width="118" height="120" as="geometry">
                        <mxRectangle width="118" height="120" as="alternateBounds"/>
                    </mxGeometry>
                </mxCell>
                <mxCell id="361" value="" style="swimlane;swimlaneHead=0;swimlaneBody=0;fontStyle=0;connectable=0;strokeColor=inherit;fillColor=none;startSize=0;collapsible=0;recursiveResize=0;expand=0;" vertex="1" parent="351">
                    <mxGeometry x="1101" width="118" height="120" as="geometry">
                        <mxRectangle width="118" height="120" as="alternateBounds"/>
                    </mxGeometry>
                </mxCell>
                <mxCell id="362" value="" style="swimlane;swimlaneHead=0;swimlaneBody=0;fontStyle=0;connectable=0;strokeColor=inherit;fillColor=none;startSize=0;collapsible=0;recursiveResize=0;expand=0;" vertex="1" parent="351">
                    <mxGeometry x="1219" width="118" height="120" as="geometry">
                        <mxRectangle width="118" height="120" as="alternateBounds"/>
                    </mxGeometry>
                </mxCell>
                <mxCell id="363" value="" style="swimlane;swimlaneHead=0;swimlaneBody=0;fontStyle=0;connectable=0;strokeColor=inherit;fillColor=none;startSize=0;collapsible=0;recursiveResize=0;expand=0;" vertex="1" parent="351">
                    <mxGeometry x="1337" width="118" height="120" as="geometry">
                        <mxRectangle width="118" height="120" as="alternateBounds"/>
                    </mxGeometry>
                </mxCell>
                <mxCell id="364" value="" style="swimlane;swimlaneHead=0;swimlaneBody=0;fontStyle=0;connectable=0;strokeColor=inherit;fillColor=none;startSize=0;collapsible=0;recursiveResize=0;expand=0;" vertex="1" parent="351">
                    <mxGeometry x="1455" width="118" height="120" as="geometry">
                        <mxRectangle width="118" height="120" as="alternateBounds"/>
                    </mxGeometry>
                </mxCell>
                <mxCell id="365" value="" style="swimlane;swimlaneHead=0;swimlaneBody=0;fontStyle=0;connectable=0;strokeColor=inherit;fillColor=none;startSize=0;collapsible=0;recursiveResize=0;expand=0;" vertex="1" parent="351">
                    <mxGeometry x="1573" width="118" height="120" as="geometry">
                        <mxRectangle width="118" height="120" as="alternateBounds"/>
                    </mxGeometry>
                </mxCell>
                <mxCell id="366" value="" style="swimlane;swimlaneHead=0;swimlaneBody=0;fontStyle=0;connectable=0;strokeColor=inherit;fillColor=none;startSize=0;collapsible=0;recursiveResize=0;expand=0;" vertex="1" parent="351">
                    <mxGeometry x="1691" width="117" height="120" as="geometry">
                        <mxRectangle width="117" height="120" as="alternateBounds"/>
                    </mxGeometry>
                </mxCell>
                <mxCell id="367" value="" style="swimlane;swimlaneHead=0;swimlaneBody=0;fontStyle=0;connectable=0;strokeColor=inherit;fillColor=none;startSize=0;collapsible=0;recursiveResize=0;expand=0;" vertex="1" parent="351">
                    <mxGeometry x="1808" width="118" height="120" as="geometry">
                        <mxRectangle width="118" height="120" as="alternateBounds"/>
                    </mxGeometry>
                </mxCell>
                <mxCell id="368" value="" style="swimlane;swimlaneHead=0;swimlaneBody=0;fontStyle=0;connectable=0;strokeColor=inherit;fillColor=none;startSize=0;collapsible=0;recursiveResize=0;expand=0;" vertex="1" parent="351">
                    <mxGeometry x="1926" width="118" height="120" as="geometry">
                        <mxRectangle width="118" height="120" as="alternateBounds"/>
                    </mxGeometry>
                </mxCell>
                <mxCell id="369" value="" style="swimlane;swimlaneHead=0;swimlaneBody=0;fontStyle=0;connectable=0;strokeColor=inherit;fillColor=none;startSize=0;collapsible=0;recursiveResize=0;expand=0;" vertex="1" parent="351">
                    <mxGeometry x="2044" width="118" height="120" as="geometry">
                        <mxRectangle width="118" height="120" as="alternateBounds"/>
                    </mxGeometry>
                </mxCell>
                <mxCell id="370" value="" style="swimlane;swimlaneHead=0;swimlaneBody=0;fontStyle=0;connectable=0;strokeColor=inherit;fillColor=none;startSize=0;collapsible=0;recursiveResize=0;expand=0;" vertex="1" parent="351">
                    <mxGeometry x="2162" width="118" height="120" as="geometry">
                        <mxRectangle width="118" height="120" as="alternateBounds"/>
                    </mxGeometry>
                </mxCell>
                <mxCell id="371" value="" style="shape=tableRow;horizontal=0;swimlaneHead=0;swimlaneBody=0;top=0;left=0;strokeColor=inherit;bottom=0;right=0;dropTarget=0;fontStyle=0;fillColor=none;points=[[0,0.5],[1,0.5]];portConstraint=eastwest;startSize=40;collapsible=0;recursiveResize=0;expand=0;" vertex="1" parent="150">
                    <mxGeometry y="1320" width="2280" height="120" as="geometry"/>
                </mxCell>
                <mxCell id="372" value="" style="swimlane;swimlaneHead=0;swimlaneBody=0;fontStyle=0;connectable=0;strokeColor=inherit;fillColor=none;startSize=0;collapsible=0;recursiveResize=0;expand=0;" vertex="1" parent="371">
                    <mxGeometry x="40" width="118" height="120" as="geometry">
                        <mxRectangle width="118" height="120" as="alternateBounds"/>
                    </mxGeometry>
                </mxCell>
                <mxCell id="373" value="" style="swimlane;swimlaneHead=0;swimlaneBody=0;fontStyle=0;connectable=0;strokeColor=inherit;fillColor=none;startSize=0;collapsible=0;recursiveResize=0;expand=0;" vertex="1" parent="371">
                    <mxGeometry x="158" width="118" height="120" as="geometry">
                        <mxRectangle width="118" height="120" as="alternateBounds"/>
                    </mxGeometry>
                </mxCell>
                <mxCell id="374" value="" style="swimlane;swimlaneHead=0;swimlaneBody=0;fontStyle=0;connectable=0;strokeColor=inherit;fillColor=none;startSize=0;collapsible=0;recursiveResize=0;expand=0;" vertex="1" parent="371">
                    <mxGeometry x="276" width="118" height="120" as="geometry">
                        <mxRectangle width="118" height="120" as="alternateBounds"/>
                    </mxGeometry>
                </mxCell>
                <mxCell id="375" value="" style="swimlane;swimlaneHead=0;swimlaneBody=0;fontStyle=0;connectable=0;strokeColor=inherit;fillColor=none;startSize=0;collapsible=0;recursiveResize=0;expand=0;" vertex="1" parent="371">
                    <mxGeometry x="394" width="118" height="120" as="geometry">
                        <mxRectangle width="118" height="120" as="alternateBounds"/>
                    </mxGeometry>
                </mxCell>
                <mxCell id="376" value="" style="swimlane;swimlaneHead=0;swimlaneBody=0;fontStyle=0;connectable=0;strokeColor=inherit;fillColor=none;startSize=0;collapsible=0;recursiveResize=0;expand=0;" vertex="1" parent="371">
                    <mxGeometry x="512" width="117" height="120" as="geometry">
                        <mxRectangle width="117" height="120" as="alternateBounds"/>
                    </mxGeometry>
                </mxCell>
                <mxCell id="377" value="" style="swimlane;swimlaneHead=0;swimlaneBody=0;fontStyle=0;connectable=0;strokeColor=inherit;fillColor=none;startSize=0;collapsible=0;recursiveResize=0;expand=0;" vertex="1" parent="371">
                    <mxGeometry x="629" width="118" height="120" as="geometry">
                        <mxRectangle width="118" height="120" as="alternateBounds"/>
                    </mxGeometry>
                </mxCell>
                <mxCell id="378" value="" style="swimlane;swimlaneHead=0;swimlaneBody=0;fontStyle=0;connectable=0;strokeColor=inherit;fillColor=none;startSize=0;collapsible=0;recursiveResize=0;expand=0;" vertex="1" parent="371">
                    <mxGeometry x="747" width="118" height="120" as="geometry">
                        <mxRectangle width="118" height="120" as="alternateBounds"/>
                    </mxGeometry>
                </mxCell>
                <mxCell id="379" value="" style="swimlane;swimlaneHead=0;swimlaneBody=0;fontStyle=0;connectable=0;strokeColor=inherit;fillColor=none;startSize=0;collapsible=0;recursiveResize=0;expand=0;" vertex="1" parent="371">
                    <mxGeometry x="865" width="118" height="120" as="geometry">
                        <mxRectangle width="118" height="120" as="alternateBounds"/>
                    </mxGeometry>
                </mxCell>
                <mxCell id="380" value="" style="swimlane;swimlaneHead=0;swimlaneBody=0;fontStyle=0;connectable=0;strokeColor=inherit;fillColor=none;startSize=0;collapsible=0;recursiveResize=0;expand=0;" vertex="1" parent="371">
                    <mxGeometry x="983" width="118" height="120" as="geometry">
                        <mxRectangle width="118" height="120" as="alternateBounds"/>
                    </mxGeometry>
                </mxCell>
                <mxCell id="381" value="" style="swimlane;swimlaneHead=0;swimlaneBody=0;fontStyle=0;connectable=0;strokeColor=inherit;fillColor=none;startSize=0;collapsible=0;recursiveResize=0;expand=0;" vertex="1" parent="371">
                    <mxGeometry x="1101" width="118" height="120" as="geometry">
                        <mxRectangle width="118" height="120" as="alternateBounds"/>
                    </mxGeometry>
                </mxCell>
                <mxCell id="382" value="" style="swimlane;swimlaneHead=0;swimlaneBody=0;fontStyle=0;connectable=0;strokeColor=inherit;fillColor=none;startSize=0;collapsible=0;recursiveResize=0;expand=0;" vertex="1" parent="371">
                    <mxGeometry x="1219" width="118" height="120" as="geometry">
                        <mxRectangle width="118" height="120" as="alternateBounds"/>
                    </mxGeometry>
                </mxCell>
                <mxCell id="383" value="" style="swimlane;swimlaneHead=0;swimlaneBody=0;fontStyle=0;connectable=0;strokeColor=inherit;fillColor=none;startSize=0;collapsible=0;recursiveResize=0;expand=0;" vertex="1" parent="371">
                    <mxGeometry x="1337" width="118" height="120" as="geometry">
                        <mxRectangle width="118" height="120" as="alternateBounds"/>
                    </mxGeometry>
                </mxCell>
                <mxCell id="384" value="" style="swimlane;swimlaneHead=0;swimlaneBody=0;fontStyle=0;connectable=0;strokeColor=inherit;fillColor=none;startSize=0;collapsible=0;recursiveResize=0;expand=0;" vertex="1" parent="371">
                    <mxGeometry x="1455" width="118" height="120" as="geometry">
                        <mxRectangle width="118" height="120" as="alternateBounds"/>
                    </mxGeometry>
                </mxCell>
                <mxCell id="385" value="" style="swimlane;swimlaneHead=0;swimlaneBody=0;fontStyle=0;connectable=0;strokeColor=inherit;fillColor=none;startSize=0;collapsible=0;recursiveResize=0;expand=0;" vertex="1" parent="371">
                    <mxGeometry x="1573" width="118" height="120" as="geometry">
                        <mxRectangle width="118" height="120" as="alternateBounds"/>
                    </mxGeometry>
                </mxCell>
                <mxCell id="386" value="" style="swimlane;swimlaneHead=0;swimlaneBody=0;fontStyle=0;connectable=0;strokeColor=inherit;fillColor=none;startSize=0;collapsible=0;recursiveResize=0;expand=0;" vertex="1" parent="371">
                    <mxGeometry x="1691" width="117" height="120" as="geometry">
                        <mxRectangle width="117" height="120" as="alternateBounds"/>
                    </mxGeometry>
                </mxCell>
                <mxCell id="387" value="" style="swimlane;swimlaneHead=0;swimlaneBody=0;fontStyle=0;connectable=0;strokeColor=inherit;fillColor=none;startSize=0;collapsible=0;recursiveResize=0;expand=0;" vertex="1" parent="371">
                    <mxGeometry x="1808" width="118" height="120" as="geometry">
                        <mxRectangle width="118" height="120" as="alternateBounds"/>
                    </mxGeometry>
                </mxCell>
                <mxCell id="388" value="" style="swimlane;swimlaneHead=0;swimlaneBody=0;fontStyle=0;connectable=0;strokeColor=inherit;fillColor=none;startSize=0;collapsible=0;recursiveResize=0;expand=0;" vertex="1" parent="371">
                    <mxGeometry x="1926" width="118" height="120" as="geometry">
                        <mxRectangle width="118" height="120" as="alternateBounds"/>
                    </mxGeometry>
                </mxCell>
                <mxCell id="389" value="" style="swimlane;swimlaneHead=0;swimlaneBody=0;fontStyle=0;connectable=0;strokeColor=inherit;fillColor=none;startSize=0;collapsible=0;recursiveResize=0;expand=0;" vertex="1" parent="371">
                    <mxGeometry x="2044" width="118" height="120" as="geometry">
                        <mxRectangle width="118" height="120" as="alternateBounds"/>
                    </mxGeometry>
                </mxCell>
                <mxCell id="390" value="" style="swimlane;swimlaneHead=0;swimlaneBody=0;fontStyle=0;connectable=0;strokeColor=inherit;fillColor=none;startSize=0;collapsible=0;recursiveResize=0;expand=0;" vertex="1" parent="371">
                    <mxGeometry x="2162" width="118" height="120" as="geometry">
                        <mxRectangle width="118" height="120" as="alternateBounds"/>
                    </mxGeometry>
                </mxCell>
                <mxCell id="391" value="" style="shape=tableRow;horizontal=0;swimlaneHead=0;swimlaneBody=0;top=0;left=0;strokeColor=inherit;bottom=0;right=0;dropTarget=0;fontStyle=0;fillColor=none;points=[[0,0.5],[1,0.5]];portConstraint=eastwest;startSize=40;collapsible=0;recursiveResize=0;expand=0;" vertex="1" parent="150">
                    <mxGeometry y="1440" width="2280" height="120" as="geometry"/>
                </mxCell>
                <mxCell id="392" value="" style="swimlane;swimlaneHead=0;swimlaneBody=0;fontStyle=0;connectable=0;strokeColor=inherit;fillColor=none;startSize=0;collapsible=0;recursiveResize=0;expand=0;" vertex="1" parent="391">
                    <mxGeometry x="40" width="118" height="120" as="geometry">
                        <mxRectangle width="118" height="120" as="alternateBounds"/>
                    </mxGeometry>
                </mxCell>
                <mxCell id="393" value="" style="swimlane;swimlaneHead=0;swimlaneBody=0;fontStyle=0;connectable=0;strokeColor=inherit;fillColor=none;startSize=0;collapsible=0;recursiveResize=0;expand=0;" vertex="1" parent="391">
                    <mxGeometry x="158" width="118" height="120" as="geometry">
                        <mxRectangle width="118" height="120" as="alternateBounds"/>
                    </mxGeometry>
                </mxCell>
                <mxCell id="394" value="" style="swimlane;swimlaneHead=0;swimlaneBody=0;fontStyle=0;connectable=0;strokeColor=inherit;fillColor=none;startSize=0;collapsible=0;recursiveResize=0;expand=0;" vertex="1" parent="391">
                    <mxGeometry x="276" width="118" height="120" as="geometry">
                        <mxRectangle width="118" height="120" as="alternateBounds"/>
                    </mxGeometry>
                </mxCell>
                <mxCell id="395" value="" style="swimlane;swimlaneHead=0;swimlaneBody=0;fontStyle=0;connectable=0;strokeColor=inherit;fillColor=none;startSize=0;collapsible=0;recursiveResize=0;expand=0;" vertex="1" parent="391">
                    <mxGeometry x="394" width="118" height="120" as="geometry">
                        <mxRectangle width="118" height="120" as="alternateBounds"/>
                    </mxGeometry>
                </mxCell>
                <mxCell id="396" value="" style="swimlane;swimlaneHead=0;swimlaneBody=0;fontStyle=0;connectable=0;strokeColor=inherit;fillColor=none;startSize=0;collapsible=0;recursiveResize=0;expand=0;" vertex="1" parent="391">
                    <mxGeometry x="512" width="117" height="120" as="geometry">
                        <mxRectangle width="117" height="120" as="alternateBounds"/>
                    </mxGeometry>
                </mxCell>
                <mxCell id="397" value="" style="swimlane;swimlaneHead=0;swimlaneBody=0;fontStyle=0;connectable=0;strokeColor=inherit;fillColor=none;startSize=0;collapsible=0;recursiveResize=0;expand=0;" vertex="1" parent="391">
                    <mxGeometry x="629" width="118" height="120" as="geometry">
                        <mxRectangle width="118" height="120" as="alternateBounds"/>
                    </mxGeometry>
                </mxCell>
                <mxCell id="398" value="" style="swimlane;swimlaneHead=0;swimlaneBody=0;fontStyle=0;connectable=0;strokeColor=inherit;fillColor=none;startSize=0;collapsible=0;recursiveResize=0;expand=0;" vertex="1" parent="391">
                    <mxGeometry x="747" width="118" height="120" as="geometry">
                        <mxRectangle width="118" height="120" as="alternateBounds"/>
                    </mxGeometry>
                </mxCell>
                <mxCell id="399" value="" style="swimlane;swimlaneHead=0;swimlaneBody=0;fontStyle=0;connectable=0;strokeColor=inherit;fillColor=none;startSize=0;collapsible=0;recursiveResize=0;expand=0;" vertex="1" parent="391">
                    <mxGeometry x="865" width="118" height="120" as="geometry">
                        <mxRectangle width="118" height="120" as="alternateBounds"/>
                    </mxGeometry>
                </mxCell>
                <mxCell id="400" value="" style="swimlane;swimlaneHead=0;swimlaneBody=0;fontStyle=0;connectable=0;strokeColor=inherit;fillColor=none;startSize=0;collapsible=0;recursiveResize=0;expand=0;" vertex="1" parent="391">
                    <mxGeometry x="983" width="118" height="120" as="geometry">
                        <mxRectangle width="118" height="120" as="alternateBounds"/>
                    </mxGeometry>
                </mxCell>
                <mxCell id="401" value="" style="swimlane;swimlaneHead=0;swimlaneBody=0;fontStyle=0;connectable=0;strokeColor=inherit;fillColor=none;startSize=0;collapsible=0;recursiveResize=0;expand=0;" vertex="1" parent="391">
                    <mxGeometry x="1101" width="118" height="120" as="geometry">
                        <mxRectangle width="118" height="120" as="alternateBounds"/>
                    </mxGeometry>
                </mxCell>
                <mxCell id="402" value="" style="swimlane;swimlaneHead=0;swimlaneBody=0;fontStyle=0;connectable=0;strokeColor=inherit;fillColor=none;startSize=0;collapsible=0;recursiveResize=0;expand=0;" vertex="1" parent="391">
                    <mxGeometry x="1219" width="118" height="120" as="geometry">
                        <mxRectangle width="118" height="120" as="alternateBounds"/>
                    </mxGeometry>
                </mxCell>
                <mxCell id="403" value="" style="swimlane;swimlaneHead=0;swimlaneBody=0;fontStyle=0;connectable=0;strokeColor=inherit;fillColor=none;startSize=0;collapsible=0;recursiveResize=0;expand=0;" vertex="1" parent="391">
                    <mxGeometry x="1337" width="118" height="120" as="geometry">
                        <mxRectangle width="118" height="120" as="alternateBounds"/>
                    </mxGeometry>
                </mxCell>
                <mxCell id="404" value="" style="swimlane;swimlaneHead=0;swimlaneBody=0;fontStyle=0;connectable=0;strokeColor=inherit;fillColor=none;startSize=0;collapsible=0;recursiveResize=0;expand=0;" vertex="1" parent="391">
                    <mxGeometry x="1455" width="118" height="120" as="geometry">
                        <mxRectangle width="118" height="120" as="alternateBounds"/>
                    </mxGeometry>
                </mxCell>
                <mxCell id="405" value="" style="swimlane;swimlaneHead=0;swimlaneBody=0;fontStyle=0;connectable=0;strokeColor=inherit;fillColor=none;startSize=0;collapsible=0;recursiveResize=0;expand=0;" vertex="1" parent="391">
                    <mxGeometry x="1573" width="118" height="120" as="geometry">
                        <mxRectangle width="118" height="120" as="alternateBounds"/>
                    </mxGeometry>
                </mxCell>
                <mxCell id="406" value="" style="swimlane;swimlaneHead=0;swimlaneBody=0;fontStyle=0;connectable=0;strokeColor=inherit;fillColor=none;startSize=0;collapsible=0;recursiveResize=0;expand=0;" vertex="1" parent="391">
                    <mxGeometry x="1691" width="117" height="120" as="geometry">
                        <mxRectangle width="117" height="120" as="alternateBounds"/>
                    </mxGeometry>
                </mxCell>
                <mxCell id="407" value="" style="swimlane;swimlaneHead=0;swimlaneBody=0;fontStyle=0;connectable=0;strokeColor=inherit;fillColor=none;startSize=0;collapsible=0;recursiveResize=0;expand=0;" vertex="1" parent="391">
                    <mxGeometry x="1808" width="118" height="120" as="geometry">
                        <mxRectangle width="118" height="120" as="alternateBounds"/>
                    </mxGeometry>
                </mxCell>
                <mxCell id="408" value="" style="swimlane;swimlaneHead=0;swimlaneBody=0;fontStyle=0;connectable=0;strokeColor=inherit;fillColor=none;startSize=0;collapsible=0;recursiveResize=0;expand=0;" vertex="1" parent="391">
                    <mxGeometry x="1926" width="118" height="120" as="geometry">
                        <mxRectangle width="118" height="120" as="alternateBounds"/>
                    </mxGeometry>
                </mxCell>
                <mxCell id="409" value="" style="swimlane;swimlaneHead=0;swimlaneBody=0;fontStyle=0;connectable=0;strokeColor=inherit;fillColor=none;startSize=0;collapsible=0;recursiveResize=0;expand=0;" vertex="1" parent="391">
                    <mxGeometry x="2044" width="118" height="120" as="geometry">
                        <mxRectangle width="118" height="120" as="alternateBounds"/>
                    </mxGeometry>
                </mxCell>
                <mxCell id="410" value="" style="swimlane;swimlaneHead=0;swimlaneBody=0;fontStyle=0;connectable=0;strokeColor=inherit;fillColor=none;startSize=0;collapsible=0;recursiveResize=0;expand=0;" vertex="1" parent="391">
                    <mxGeometry x="2162" width="118" height="120" as="geometry">
                        <mxRectangle width="118" height="120" as="alternateBounds"/>
                    </mxGeometry>
                </mxCell>
                <mxCell id="411" value="" style="shape=tableRow;horizontal=0;swimlaneHead=0;swimlaneBody=0;top=0;left=0;strokeColor=inherit;bottom=0;right=0;dropTarget=0;fontStyle=0;fillColor=none;points=[[0,0.5],[1,0.5]];portConstraint=eastwest;startSize=40;collapsible=0;recursiveResize=0;expand=0;" vertex="1" parent="150">
                    <mxGeometry y="1560" width="2280" height="120" as="geometry"/>
                </mxCell>
                <mxCell id="412" value="" style="swimlane;swimlaneHead=0;swimlaneBody=0;fontStyle=0;connectable=0;strokeColor=inherit;fillColor=none;startSize=0;collapsible=0;recursiveResize=0;expand=0;" vertex="1" parent="411">
                    <mxGeometry x="40" width="118" height="120" as="geometry">
                        <mxRectangle width="118" height="120" as="alternateBounds"/>
                    </mxGeometry>
                </mxCell>
                <mxCell id="413" value="" style="swimlane;swimlaneHead=0;swimlaneBody=0;fontStyle=0;connectable=0;strokeColor=inherit;fillColor=none;startSize=0;collapsible=0;recursiveResize=0;expand=0;" vertex="1" parent="411">
                    <mxGeometry x="158" width="118" height="120" as="geometry">
                        <mxRectangle width="118" height="120" as="alternateBounds"/>
                    </mxGeometry>
                </mxCell>
                <mxCell id="414" value="" style="swimlane;swimlaneHead=0;swimlaneBody=0;fontStyle=0;connectable=0;strokeColor=inherit;fillColor=none;startSize=0;collapsible=0;recursiveResize=0;expand=0;" vertex="1" parent="411">
                    <mxGeometry x="276" width="118" height="120" as="geometry">
                        <mxRectangle width="118" height="120" as="alternateBounds"/>
                    </mxGeometry>
                </mxCell>
                <mxCell id="415" value="" style="swimlane;swimlaneHead=0;swimlaneBody=0;fontStyle=0;connectable=0;strokeColor=inherit;fillColor=none;startSize=0;collapsible=0;recursiveResize=0;expand=0;" vertex="1" parent="411">
                    <mxGeometry x="394" width="118" height="120" as="geometry">
                        <mxRectangle width="118" height="120" as="alternateBounds"/>
                    </mxGeometry>
                </mxCell>
                <mxCell id="416" value="" style="swimlane;swimlaneHead=0;swimlaneBody=0;fontStyle=0;connectable=0;strokeColor=inherit;fillColor=none;startSize=0;collapsible=0;recursiveResize=0;expand=0;" vertex="1" parent="411">
                    <mxGeometry x="512" width="117" height="120" as="geometry">
                        <mxRectangle width="117" height="120" as="alternateBounds"/>
                    </mxGeometry>
                </mxCell>
                <mxCell id="417" value="" style="swimlane;swimlaneHead=0;swimlaneBody=0;fontStyle=0;connectable=0;strokeColor=inherit;fillColor=none;startSize=0;collapsible=0;recursiveResize=0;expand=0;" vertex="1" parent="411">
                    <mxGeometry x="629" width="118" height="120" as="geometry">
                        <mxRectangle width="118" height="120" as="alternateBounds"/>
                    </mxGeometry>
                </mxCell>
                <mxCell id="418" value="" style="swimlane;swimlaneHead=0;swimlaneBody=0;fontStyle=0;connectable=0;strokeColor=inherit;fillColor=none;startSize=0;collapsible=0;recursiveResize=0;expand=0;" vertex="1" parent="411">
                    <mxGeometry x="747" width="118" height="120" as="geometry">
                        <mxRectangle width="118" height="120" as="alternateBounds"/>
                    </mxGeometry>
                </mxCell>
                <mxCell id="419" value="" style="swimlane;swimlaneHead=0;swimlaneBody=0;fontStyle=0;connectable=0;strokeColor=inherit;fillColor=none;startSize=0;collapsible=0;recursiveResize=0;expand=0;" vertex="1" parent="411">
                    <mxGeometry x="865" width="118" height="120" as="geometry">
                        <mxRectangle width="118" height="120" as="alternateBounds"/>
                    </mxGeometry>
                </mxCell>
                <mxCell id="420" value="" style="swimlane;swimlaneHead=0;swimlaneBody=0;fontStyle=0;connectable=0;strokeColor=inherit;fillColor=none;startSize=0;collapsible=0;recursiveResize=0;expand=0;" vertex="1" parent="411">
                    <mxGeometry x="983" width="118" height="120" as="geometry">
                        <mxRectangle width="118" height="120" as="alternateBounds"/>
                    </mxGeometry>
                </mxCell>
                <mxCell id="421" value="" style="swimlane;swimlaneHead=0;swimlaneBody=0;fontStyle=0;connectable=0;strokeColor=inherit;fillColor=none;startSize=0;collapsible=0;recursiveResize=0;expand=0;" vertex="1" parent="411">
                    <mxGeometry x="1101" width="118" height="120" as="geometry">
                        <mxRectangle width="118" height="120" as="alternateBounds"/>
                    </mxGeometry>
                </mxCell>
                <mxCell id="422" value="" style="swimlane;swimlaneHead=0;swimlaneBody=0;fontStyle=0;connectable=0;strokeColor=inherit;fillColor=none;startSize=0;collapsible=0;recursiveResize=0;expand=0;" vertex="1" parent="411">
                    <mxGeometry x="1219" width="118" height="120" as="geometry">
                        <mxRectangle width="118" height="120" as="alternateBounds"/>
                    </mxGeometry>
                </mxCell>
                <mxCell id="423" value="" style="swimlane;swimlaneHead=0;swimlaneBody=0;fontStyle=0;connectable=0;strokeColor=inherit;fillColor=none;startSize=0;collapsible=0;recursiveResize=0;expand=0;" vertex="1" parent="411">
                    <mxGeometry x="1337" width="118" height="120" as="geometry">
                        <mxRectangle width="118" height="120" as="alternateBounds"/>
                    </mxGeometry>
                </mxCell>
                <mxCell id="424" value="" style="swimlane;swimlaneHead=0;swimlaneBody=0;fontStyle=0;connectable=0;strokeColor=inherit;fillColor=none;startSize=0;collapsible=0;recursiveResize=0;expand=0;" vertex="1" parent="411">
                    <mxGeometry x="1455" width="118" height="120" as="geometry">
                        <mxRectangle width="118" height="120" as="alternateBounds"/>
                    </mxGeometry>
                </mxCell>
                <mxCell id="425" value="" style="swimlane;swimlaneHead=0;swimlaneBody=0;fontStyle=0;connectable=0;strokeColor=inherit;fillColor=none;startSize=0;collapsible=0;recursiveResize=0;expand=0;" vertex="1" parent="411">
                    <mxGeometry x="1573" width="118" height="120" as="geometry">
                        <mxRectangle width="118" height="120" as="alternateBounds"/>
                    </mxGeometry>
                </mxCell>
                <mxCell id="426" value="" style="swimlane;swimlaneHead=0;swimlaneBody=0;fontStyle=0;connectable=0;strokeColor=inherit;fillColor=none;startSize=0;collapsible=0;recursiveResize=0;expand=0;" vertex="1" parent="411">
                    <mxGeometry x="1691" width="117" height="120" as="geometry">
                        <mxRectangle width="117" height="120" as="alternateBounds"/>
                    </mxGeometry>
                </mxCell>
                <mxCell id="427" value="" style="swimlane;swimlaneHead=0;swimlaneBody=0;fontStyle=0;connectable=0;strokeColor=inherit;fillColor=none;startSize=0;collapsible=0;recursiveResize=0;expand=0;" vertex="1" parent="411">
                    <mxGeometry x="1808" width="118" height="120" as="geometry">
                        <mxRectangle width="118" height="120" as="alternateBounds"/>
                    </mxGeometry>
                </mxCell>
                <mxCell id="428" value="" style="swimlane;swimlaneHead=0;swimlaneBody=0;fontStyle=0;connectable=0;strokeColor=inherit;fillColor=none;startSize=0;collapsible=0;recursiveResize=0;expand=0;" vertex="1" parent="411">
                    <mxGeometry x="1926" width="118" height="120" as="geometry">
                        <mxRectangle width="118" height="120" as="alternateBounds"/>
                    </mxGeometry>
                </mxCell>
                <mxCell id="429" value="" style="swimlane;swimlaneHead=0;swimlaneBody=0;fontStyle=0;connectable=0;strokeColor=inherit;fillColor=none;startSize=0;collapsible=0;recursiveResize=0;expand=0;" vertex="1" parent="411">
                    <mxGeometry x="2044" width="118" height="120" as="geometry">
                        <mxRectangle width="118" height="120" as="alternateBounds"/>
                    </mxGeometry>
                </mxCell>
                <mxCell id="430" value="" style="swimlane;swimlaneHead=0;swimlaneBody=0;fontStyle=0;connectable=0;strokeColor=inherit;fillColor=none;startSize=0;collapsible=0;recursiveResize=0;expand=0;" vertex="1" parent="411">
                    <mxGeometry x="2162" width="118" height="120" as="geometry">
                        <mxRectangle width="118" height="120" as="alternateBounds"/>
                    </mxGeometry>
                </mxCell>
                <mxCell id="431" value="" style="shape=tableRow;horizontal=0;swimlaneHead=0;swimlaneBody=0;top=0;left=0;strokeColor=inherit;bottom=0;right=0;dropTarget=0;fontStyle=0;fillColor=none;points=[[0,0.5],[1,0.5]];portConstraint=eastwest;startSize=40;collapsible=0;recursiveResize=0;expand=0;" vertex="1" parent="150">
                    <mxGeometry y="1680" width="2280" height="120" as="geometry"/>
                </mxCell>
                <mxCell id="432" value="" style="swimlane;swimlaneHead=0;swimlaneBody=0;fontStyle=0;connectable=0;strokeColor=inherit;fillColor=none;startSize=0;collapsible=0;recursiveResize=0;expand=0;" vertex="1" parent="431">
                    <mxGeometry x="40" width="118" height="120" as="geometry">
                        <mxRectangle width="118" height="120" as="alternateBounds"/>
                    </mxGeometry>
                </mxCell>
                <mxCell id="433" value="" style="swimlane;swimlaneHead=0;swimlaneBody=0;fontStyle=0;connectable=0;strokeColor=inherit;fillColor=none;startSize=0;collapsible=0;recursiveResize=0;expand=0;" vertex="1" parent="431">
                    <mxGeometry x="158" width="118" height="120" as="geometry">
                        <mxRectangle width="118" height="120" as="alternateBounds"/>
                    </mxGeometry>
                </mxCell>
                <mxCell id="434" value="" style="swimlane;swimlaneHead=0;swimlaneBody=0;fontStyle=0;connectable=0;strokeColor=inherit;fillColor=none;startSize=0;collapsible=0;recursiveResize=0;expand=0;" vertex="1" parent="431">
                    <mxGeometry x="276" width="118" height="120" as="geometry">
                        <mxRectangle width="118" height="120" as="alternateBounds"/>
                    </mxGeometry>
                </mxCell>
                <mxCell id="435" value="" style="swimlane;swimlaneHead=0;swimlaneBody=0;fontStyle=0;connectable=0;strokeColor=inherit;fillColor=none;startSize=0;collapsible=0;recursiveResize=0;expand=0;" vertex="1" parent="431">
                    <mxGeometry x="394" width="118" height="120" as="geometry">
                        <mxRectangle width="118" height="120" as="alternateBounds"/>
                    </mxGeometry>
                </mxCell>
                <mxCell id="436" value="" style="swimlane;swimlaneHead=0;swimlaneBody=0;fontStyle=0;connectable=0;strokeColor=inherit;fillColor=none;startSize=0;collapsible=0;recursiveResize=0;expand=0;" vertex="1" parent="431">
                    <mxGeometry x="512" width="117" height="120" as="geometry">
                        <mxRectangle width="117" height="120" as="alternateBounds"/>
                    </mxGeometry>
                </mxCell>
                <mxCell id="437" value="" style="swimlane;swimlaneHead=0;swimlaneBody=0;fontStyle=0;connectable=0;strokeColor=inherit;fillColor=none;startSize=0;collapsible=0;recursiveResize=0;expand=0;" vertex="1" parent="431">
                    <mxGeometry x="629" width="118" height="120" as="geometry">
                        <mxRectangle width="118" height="120" as="alternateBounds"/>
                    </mxGeometry>
                </mxCell>
                <mxCell id="438" value="" style="swimlane;swimlaneHead=0;swimlaneBody=0;fontStyle=0;connectable=0;strokeColor=inherit;fillColor=none;startSize=0;collapsible=0;recursiveResize=0;expand=0;" vertex="1" parent="431">
                    <mxGeometry x="747" width="118" height="120" as="geometry">
                        <mxRectangle width="118" height="120" as="alternateBounds"/>
                    </mxGeometry>
                </mxCell>
                <mxCell id="439" value="" style="swimlane;swimlaneHead=0;swimlaneBody=0;fontStyle=0;connectable=0;strokeColor=inherit;fillColor=none;startSize=0;collapsible=0;recursiveResize=0;expand=0;" vertex="1" parent="431">
                    <mxGeometry x="865" width="118" height="120" as="geometry">
                        <mxRectangle width="118" height="120" as="alternateBounds"/>
                    </mxGeometry>
                </mxCell>
                <mxCell id="440" value="" style="swimlane;swimlaneHead=0;swimlaneBody=0;fontStyle=0;connectable=0;strokeColor=inherit;fillColor=none;startSize=0;collapsible=0;recursiveResize=0;expand=0;" vertex="1" parent="431">
                    <mxGeometry x="983" width="118" height="120" as="geometry">
                        <mxRectangle width="118" height="120" as="alternateBounds"/>
                    </mxGeometry>
                </mxCell>
                <mxCell id="441" value="" style="swimlane;swimlaneHead=0;swimlaneBody=0;fontStyle=0;connectable=0;strokeColor=inherit;fillColor=none;startSize=0;collapsible=0;recursiveResize=0;expand=0;" vertex="1" parent="431">
                    <mxGeometry x="1101" width="118" height="120" as="geometry">
                        <mxRectangle width="118" height="120" as="alternateBounds"/>
                    </mxGeometry>
                </mxCell>
                <mxCell id="442" value="" style="swimlane;swimlaneHead=0;swimlaneBody=0;fontStyle=0;connectable=0;strokeColor=inherit;fillColor=none;startSize=0;collapsible=0;recursiveResize=0;expand=0;" vertex="1" parent="431">
                    <mxGeometry x="1219" width="118" height="120" as="geometry">
                        <mxRectangle width="118" height="120" as="alternateBounds"/>
                    </mxGeometry>
                </mxCell>
                <mxCell id="443" value="" style="swimlane;swimlaneHead=0;swimlaneBody=0;fontStyle=0;connectable=0;strokeColor=inherit;fillColor=none;startSize=0;collapsible=0;recursiveResize=0;expand=0;" vertex="1" parent="431">
                    <mxGeometry x="1337" width="118" height="120" as="geometry">
                        <mxRectangle width="118" height="120" as="alternateBounds"/>
                    </mxGeometry>
                </mxCell>
                <mxCell id="444" value="" style="swimlane;swimlaneHead=0;swimlaneBody=0;fontStyle=0;connectable=0;strokeColor=inherit;fillColor=none;startSize=0;collapsible=0;recursiveResize=0;expand=0;" vertex="1" parent="431">
                    <mxGeometry x="1455" width="118" height="120" as="geometry">
                        <mxRectangle width="118" height="120" as="alternateBounds"/>
                    </mxGeometry>
                </mxCell>
                <mxCell id="445" value="" style="swimlane;swimlaneHead=0;swimlaneBody=0;fontStyle=0;connectable=0;strokeColor=inherit;fillColor=none;startSize=0;collapsible=0;recursiveResize=0;expand=0;" vertex="1" parent="431">
                    <mxGeometry x="1573" width="118" height="120" as="geometry">
                        <mxRectangle width="118" height="120" as="alternateBounds"/>
                    </mxGeometry>
                </mxCell>
                <mxCell id="446" value="" style="swimlane;swimlaneHead=0;swimlaneBody=0;fontStyle=0;connectable=0;strokeColor=inherit;fillColor=none;startSize=0;collapsible=0;recursiveResize=0;expand=0;" vertex="1" parent="431">
                    <mxGeometry x="1691" width="117" height="120" as="geometry">
                        <mxRectangle width="117" height="120" as="alternateBounds"/>
                    </mxGeometry>
                </mxCell>
                <mxCell id="447" value="" style="swimlane;swimlaneHead=0;swimlaneBody=0;fontStyle=0;connectable=0;strokeColor=inherit;fillColor=none;startSize=0;collapsible=0;recursiveResize=0;expand=0;" vertex="1" parent="431">
                    <mxGeometry x="1808" width="118" height="120" as="geometry">
                        <mxRectangle width="118" height="120" as="alternateBounds"/>
                    </mxGeometry>
                </mxCell>
                <mxCell id="448" value="" style="swimlane;swimlaneHead=0;swimlaneBody=0;fontStyle=0;connectable=0;strokeColor=inherit;fillColor=none;startSize=0;collapsible=0;recursiveResize=0;expand=0;" vertex="1" parent="431">
                    <mxGeometry x="1926" width="118" height="120" as="geometry">
                        <mxRectangle width="118" height="120" as="alternateBounds"/>
                    </mxGeometry>
                </mxCell>
                <mxCell id="449" value="" style="swimlane;swimlaneHead=0;swimlaneBody=0;fontStyle=0;connectable=0;strokeColor=inherit;fillColor=none;startSize=0;collapsible=0;recursiveResize=0;expand=0;" vertex="1" parent="431">
                    <mxGeometry x="2044" width="118" height="120" as="geometry">
                        <mxRectangle width="118" height="120" as="alternateBounds"/>
                    </mxGeometry>
                </mxCell>
                <mxCell id="450" value="" style="swimlane;swimlaneHead=0;swimlaneBody=0;fontStyle=0;connectable=0;strokeColor=inherit;fillColor=none;startSize=0;collapsible=0;recursiveResize=0;expand=0;" vertex="1" parent="431">
                    <mxGeometry x="2162" width="118" height="120" as="geometry">
                        <mxRectangle width="118" height="120" as="alternateBounds"/>
                    </mxGeometry>
                </mxCell>
                <mxCell id="451" value="" style="shape=tableRow;horizontal=0;swimlaneHead=0;swimlaneBody=0;top=0;left=0;strokeColor=inherit;bottom=0;right=0;dropTarget=0;fontStyle=0;fillColor=none;points=[[0,0.5],[1,0.5]];portConstraint=eastwest;startSize=40;collapsible=0;recursiveResize=0;expand=0;" vertex="1" parent="150">
                    <mxGeometry y="1800" width="2280" height="120" as="geometry"/>
                </mxCell>
                <mxCell id="452" value="" style="swimlane;swimlaneHead=0;swimlaneBody=0;fontStyle=0;connectable=0;strokeColor=inherit;fillColor=none;startSize=0;collapsible=0;recursiveResize=0;expand=0;" vertex="1" parent="451">
                    <mxGeometry x="40" width="118" height="120" as="geometry">
                        <mxRectangle width="118" height="120" as="alternateBounds"/>
                    </mxGeometry>
                </mxCell>
                <mxCell id="453" value="" style="swimlane;swimlaneHead=0;swimlaneBody=0;fontStyle=0;connectable=0;strokeColor=inherit;fillColor=none;startSize=0;collapsible=0;recursiveResize=0;expand=0;" vertex="1" parent="451">
                    <mxGeometry x="158" width="118" height="120" as="geometry">
                        <mxRectangle width="118" height="120" as="alternateBounds"/>
                    </mxGeometry>
                </mxCell>
                <mxCell id="454" value="" style="swimlane;swimlaneHead=0;swimlaneBody=0;fontStyle=0;connectable=0;strokeColor=inherit;fillColor=none;startSize=0;collapsible=0;recursiveResize=0;expand=0;" vertex="1" parent="451">
                    <mxGeometry x="276" width="118" height="120" as="geometry">
                        <mxRectangle width="118" height="120" as="alternateBounds"/>
                    </mxGeometry>
                </mxCell>
                <mxCell id="455" value="" style="swimlane;swimlaneHead=0;swimlaneBody=0;fontStyle=0;connectable=0;strokeColor=inherit;fillColor=none;startSize=0;collapsible=0;recursiveResize=0;expand=0;" vertex="1" parent="451">
                    <mxGeometry x="394" width="118" height="120" as="geometry">
                        <mxRectangle width="118" height="120" as="alternateBounds"/>
                    </mxGeometry>
                </mxCell>
                <mxCell id="456" value="" style="swimlane;swimlaneHead=0;swimlaneBody=0;fontStyle=0;connectable=0;strokeColor=inherit;fillColor=none;startSize=0;collapsible=0;recursiveResize=0;expand=0;" vertex="1" parent="451">
                    <mxGeometry x="512" width="117" height="120" as="geometry">
                        <mxRectangle width="117" height="120" as="alternateBounds"/>
                    </mxGeometry>
                </mxCell>
                <mxCell id="457" value="" style="swimlane;swimlaneHead=0;swimlaneBody=0;fontStyle=0;connectable=0;strokeColor=inherit;fillColor=none;startSize=0;collapsible=0;recursiveResize=0;expand=0;" vertex="1" parent="451">
                    <mxGeometry x="629" width="118" height="120" as="geometry">
                        <mxRectangle width="118" height="120" as="alternateBounds"/>
                    </mxGeometry>
                </mxCell>
                <mxCell id="458" value="" style="swimlane;swimlaneHead=0;swimlaneBody=0;fontStyle=0;connectable=0;strokeColor=inherit;fillColor=none;startSize=0;collapsible=0;recursiveResize=0;expand=0;" vertex="1" parent="451">
                    <mxGeometry x="747" width="118" height="120" as="geometry">
                        <mxRectangle width="118" height="120" as="alternateBounds"/>
                    </mxGeometry>
                </mxCell>
                <mxCell id="459" value="" style="swimlane;swimlaneHead=0;swimlaneBody=0;fontStyle=0;connectable=0;strokeColor=inherit;fillColor=none;startSize=0;collapsible=0;recursiveResize=0;expand=0;" vertex="1" parent="451">
                    <mxGeometry x="865" width="118" height="120" as="geometry">
                        <mxRectangle width="118" height="120" as="alternateBounds"/>
                    </mxGeometry>
                </mxCell>
                <mxCell id="460" value="" style="swimlane;swimlaneHead=0;swimlaneBody=0;fontStyle=0;connectable=0;strokeColor=inherit;fillColor=none;startSize=0;collapsible=0;recursiveResize=0;expand=0;" vertex="1" parent="451">
                    <mxGeometry x="983" width="118" height="120" as="geometry">
                        <mxRectangle width="118" height="120" as="alternateBounds"/>
                    </mxGeometry>
                </mxCell>
                <mxCell id="461" value="" style="swimlane;swimlaneHead=0;swimlaneBody=0;fontStyle=0;connectable=0;strokeColor=inherit;fillColor=none;startSize=0;collapsible=0;recursiveResize=0;expand=0;" vertex="1" parent="451">
                    <mxGeometry x="1101" width="118" height="120" as="geometry">
                        <mxRectangle width="118" height="120" as="alternateBounds"/>
                    </mxGeometry>
                </mxCell>
                <mxCell id="462" value="" style="swimlane;swimlaneHead=0;swimlaneBody=0;fontStyle=0;connectable=0;strokeColor=inherit;fillColor=none;startSize=0;collapsible=0;recursiveResize=0;expand=0;" vertex="1" parent="451">
                    <mxGeometry x="1219" width="118" height="120" as="geometry">
                        <mxRectangle width="118" height="120" as="alternateBounds"/>
                    </mxGeometry>
                </mxCell>
                <mxCell id="463" value="" style="swimlane;swimlaneHead=0;swimlaneBody=0;fontStyle=0;connectable=0;strokeColor=inherit;fillColor=none;startSize=0;collapsible=0;recursiveResize=0;expand=0;" vertex="1" parent="451">
                    <mxGeometry x="1337" width="118" height="120" as="geometry">
                        <mxRectangle width="118" height="120" as="alternateBounds"/>
                    </mxGeometry>
                </mxCell>
                <mxCell id="464" value="" style="swimlane;swimlaneHead=0;swimlaneBody=0;fontStyle=0;connectable=0;strokeColor=inherit;fillColor=none;startSize=0;collapsible=0;recursiveResize=0;expand=0;" vertex="1" parent="451">
                    <mxGeometry x="1455" width="118" height="120" as="geometry">
                        <mxRectangle width="118" height="120" as="alternateBounds"/>
                    </mxGeometry>
                </mxCell>
                <mxCell id="465" value="" style="swimlane;swimlaneHead=0;swimlaneBody=0;fontStyle=0;connectable=0;strokeColor=inherit;fillColor=none;startSize=0;collapsible=0;recursiveResize=0;expand=0;" vertex="1" parent="451">
                    <mxGeometry x="1573" width="118" height="120" as="geometry">
                        <mxRectangle width="118" height="120" as="alternateBounds"/>
                    </mxGeometry>
                </mxCell>
                <mxCell id="466" value="" style="swimlane;swimlaneHead=0;swimlaneBody=0;fontStyle=0;connectable=0;strokeColor=inherit;fillColor=none;startSize=0;collapsible=0;recursiveResize=0;expand=0;" vertex="1" parent="451">
                    <mxGeometry x="1691" width="117" height="120" as="geometry">
                        <mxRectangle width="117" height="120" as="alternateBounds"/>
                    </mxGeometry>
                </mxCell>
                <mxCell id="467" value="" style="swimlane;swimlaneHead=0;swimlaneBody=0;fontStyle=0;connectable=0;strokeColor=inherit;fillColor=none;startSize=0;collapsible=0;recursiveResize=0;expand=0;" vertex="1" parent="451">
                    <mxGeometry x="1808" width="118" height="120" as="geometry">
                        <mxRectangle width="118" height="120" as="alternateBounds"/>
                    </mxGeometry>
                </mxCell>
                <mxCell id="468" value="" style="swimlane;swimlaneHead=0;swimlaneBody=0;fontStyle=0;connectable=0;strokeColor=inherit;fillColor=none;startSize=0;collapsible=0;recursiveResize=0;expand=0;" vertex="1" parent="451">
                    <mxGeometry x="1926" width="118" height="120" as="geometry">
                        <mxRectangle width="118" height="120" as="alternateBounds"/>
                    </mxGeometry>
                </mxCell>
                <mxCell id="469" value="" style="swimlane;swimlaneHead=0;swimlaneBody=0;fontStyle=0;connectable=0;strokeColor=inherit;fillColor=none;startSize=0;collapsible=0;recursiveResize=0;expand=0;" vertex="1" parent="451">
                    <mxGeometry x="2044" width="118" height="120" as="geometry">
                        <mxRectangle width="118" height="120" as="alternateBounds"/>
                    </mxGeometry>
                </mxCell>
                <mxCell id="470" value="" style="swimlane;swimlaneHead=0;swimlaneBody=0;fontStyle=0;connectable=0;strokeColor=inherit;fillColor=none;startSize=0;collapsible=0;recursiveResize=0;expand=0;" vertex="1" parent="451">
                    <mxGeometry x="2162" width="118" height="120" as="geometry">
                        <mxRectangle width="118" height="120" as="alternateBounds"/>
                    </mxGeometry>
                </mxCell>
                <mxCell id="471" value="" style="shape=tableRow;horizontal=0;swimlaneHead=0;swimlaneBody=0;top=0;left=0;strokeColor=inherit;bottom=0;right=0;dropTarget=0;fontStyle=0;fillColor=none;points=[[0,0.5],[1,0.5]];portConstraint=eastwest;startSize=40;collapsible=0;recursiveResize=0;expand=0;" vertex="1" parent="150">
                    <mxGeometry y="1920" width="2280" height="120" as="geometry"/>
                </mxCell>
                <mxCell id="472" value="" style="swimlane;swimlaneHead=0;swimlaneBody=0;fontStyle=0;connectable=0;strokeColor=inherit;fillColor=none;startSize=0;collapsible=0;recursiveResize=0;expand=0;" vertex="1" parent="471">
                    <mxGeometry x="40" width="118" height="120" as="geometry">
                        <mxRectangle width="118" height="120" as="alternateBounds"/>
                    </mxGeometry>
                </mxCell>
                <mxCell id="473" value="" style="swimlane;swimlaneHead=0;swimlaneBody=0;fontStyle=0;connectable=0;strokeColor=inherit;fillColor=none;startSize=0;collapsible=0;recursiveResize=0;expand=0;" vertex="1" parent="471">
                    <mxGeometry x="158" width="118" height="120" as="geometry">
                        <mxRectangle width="118" height="120" as="alternateBounds"/>
                    </mxGeometry>
                </mxCell>
                <mxCell id="474" value="" style="swimlane;swimlaneHead=0;swimlaneBody=0;fontStyle=0;connectable=0;strokeColor=inherit;fillColor=none;startSize=0;collapsible=0;recursiveResize=0;expand=0;" vertex="1" parent="471">
                    <mxGeometry x="276" width="118" height="120" as="geometry">
                        <mxRectangle width="118" height="120" as="alternateBounds"/>
                    </mxGeometry>
                </mxCell>
                <mxCell id="475" value="" style="swimlane;swimlaneHead=0;swimlaneBody=0;fontStyle=0;connectable=0;strokeColor=inherit;fillColor=none;startSize=0;collapsible=0;recursiveResize=0;expand=0;" vertex="1" parent="471">
                    <mxGeometry x="394" width="118" height="120" as="geometry">
                        <mxRectangle width="118" height="120" as="alternateBounds"/>
                    </mxGeometry>
                </mxCell>
                <mxCell id="476" value="" style="swimlane;swimlaneHead=0;swimlaneBody=0;fontStyle=0;connectable=0;strokeColor=inherit;fillColor=none;startSize=0;collapsible=0;recursiveResize=0;expand=0;" vertex="1" parent="471">
                    <mxGeometry x="512" width="117" height="120" as="geometry">
                        <mxRectangle width="117" height="120" as="alternateBounds"/>
                    </mxGeometry>
                </mxCell>
                <mxCell id="477" value="" style="swimlane;swimlaneHead=0;swimlaneBody=0;fontStyle=0;connectable=0;strokeColor=inherit;fillColor=none;startSize=0;collapsible=0;recursiveResize=0;expand=0;" vertex="1" parent="471">
                    <mxGeometry x="629" width="118" height="120" as="geometry">
                        <mxRectangle width="118" height="120" as="alternateBounds"/>
                    </mxGeometry>
                </mxCell>
                <mxCell id="478" value="" style="swimlane;swimlaneHead=0;swimlaneBody=0;fontStyle=0;connectable=0;strokeColor=inherit;fillColor=none;startSize=0;collapsible=0;recursiveResize=0;expand=0;" vertex="1" parent="471">
                    <mxGeometry x="747" width="118" height="120" as="geometry">
                        <mxRectangle width="118" height="120" as="alternateBounds"/>
                    </mxGeometry>
                </mxCell>
                <mxCell id="479" value="" style="swimlane;swimlaneHead=0;swimlaneBody=0;fontStyle=0;connectable=0;strokeColor=inherit;fillColor=none;startSize=0;collapsible=0;recursiveResize=0;expand=0;" vertex="1" parent="471">
                    <mxGeometry x="865" width="118" height="120" as="geometry">
                        <mxRectangle width="118" height="120" as="alternateBounds"/>
                    </mxGeometry>
                </mxCell>
                <mxCell id="480" value="" style="swimlane;swimlaneHead=0;swimlaneBody=0;fontStyle=0;connectable=0;strokeColor=inherit;fillColor=none;startSize=0;collapsible=0;recursiveResize=0;expand=0;" vertex="1" parent="471">
                    <mxGeometry x="983" width="118" height="120" as="geometry">
                        <mxRectangle width="118" height="120" as="alternateBounds"/>
                    </mxGeometry>
                </mxCell>
                <mxCell id="481" value="" style="swimlane;swimlaneHead=0;swimlaneBody=0;fontStyle=0;connectable=0;strokeColor=inherit;fillColor=none;startSize=0;collapsible=0;recursiveResize=0;expand=0;" vertex="1" parent="471">
                    <mxGeometry x="1101" width="118" height="120" as="geometry">
                        <mxRectangle width="118" height="120" as="alternateBounds"/>
                    </mxGeometry>
                </mxCell>
                <mxCell id="482" value="" style="swimlane;swimlaneHead=0;swimlaneBody=0;fontStyle=0;connectable=0;strokeColor=inherit;fillColor=none;startSize=0;collapsible=0;recursiveResize=0;expand=0;" vertex="1" parent="471">
                    <mxGeometry x="1219" width="118" height="120" as="geometry">
                        <mxRectangle width="118" height="120" as="alternateBounds"/>
                    </mxGeometry>
                </mxCell>
                <mxCell id="483" value="" style="swimlane;swimlaneHead=0;swimlaneBody=0;fontStyle=0;connectable=0;strokeColor=inherit;fillColor=none;startSize=0;collapsible=0;recursiveResize=0;expand=0;" vertex="1" parent="471">
                    <mxGeometry x="1337" width="118" height="120" as="geometry">
                        <mxRectangle width="118" height="120" as="alternateBounds"/>
                    </mxGeometry>
                </mxCell>
                <mxCell id="484" value="" style="swimlane;swimlaneHead=0;swimlaneBody=0;fontStyle=0;connectable=0;strokeColor=inherit;fillColor=none;startSize=0;collapsible=0;recursiveResize=0;expand=0;" vertex="1" parent="471">
                    <mxGeometry x="1455" width="118" height="120" as="geometry">
                        <mxRectangle width="118" height="120" as="alternateBounds"/>
                    </mxGeometry>
                </mxCell>
                <mxCell id="485" value="" style="swimlane;swimlaneHead=0;swimlaneBody=0;fontStyle=0;connectable=0;strokeColor=inherit;fillColor=none;startSize=0;collapsible=0;recursiveResize=0;expand=0;" vertex="1" parent="471">
                    <mxGeometry x="1573" width="118" height="120" as="geometry">
                        <mxRectangle width="118" height="120" as="alternateBounds"/>
                    </mxGeometry>
                </mxCell>
                <mxCell id="486" value="" style="swimlane;swimlaneHead=0;swimlaneBody=0;fontStyle=0;connectable=0;strokeColor=inherit;fillColor=none;startSize=0;collapsible=0;recursiveResize=0;expand=0;" vertex="1" parent="471">
                    <mxGeometry x="1691" width="117" height="120" as="geometry">
                        <mxRectangle width="117" height="120" as="alternateBounds"/>
                    </mxGeometry>
                </mxCell>
                <mxCell id="487" value="" style="swimlane;swimlaneHead=0;swimlaneBody=0;fontStyle=0;connectable=0;strokeColor=inherit;fillColor=none;startSize=0;collapsible=0;recursiveResize=0;expand=0;" vertex="1" parent="471">
                    <mxGeometry x="1808" width="118" height="120" as="geometry">
                        <mxRectangle width="118" height="120" as="alternateBounds"/>
                    </mxGeometry>
                </mxCell>
                <mxCell id="488" value="" style="swimlane;swimlaneHead=0;swimlaneBody=0;fontStyle=0;connectable=0;strokeColor=inherit;fillColor=none;startSize=0;collapsible=0;recursiveResize=0;expand=0;" vertex="1" parent="471">
                    <mxGeometry x="1926" width="118" height="120" as="geometry">
                        <mxRectangle width="118" height="120" as="alternateBounds"/>
                    </mxGeometry>
                </mxCell>
                <mxCell id="489" value="" style="swimlane;swimlaneHead=0;swimlaneBody=0;fontStyle=0;connectable=0;strokeColor=inherit;fillColor=none;startSize=0;collapsible=0;recursiveResize=0;expand=0;" vertex="1" parent="471">
                    <mxGeometry x="2044" width="118" height="120" as="geometry">
                        <mxRectangle width="118" height="120" as="alternateBounds"/>
                    </mxGeometry>
                </mxCell>
                <mxCell id="490" value="" style="swimlane;swimlaneHead=0;swimlaneBody=0;fontStyle=0;connectable=0;strokeColor=inherit;fillColor=none;startSize=0;collapsible=0;recursiveResize=0;expand=0;" vertex="1" parent="471">
                    <mxGeometry x="2162" width="118" height="120" as="geometry">
                        <mxRectangle width="118" height="120" as="alternateBounds"/>
                    </mxGeometry>
                </mxCell>
                <mxCell id="491" value="" style="shape=tableRow;horizontal=0;swimlaneHead=0;swimlaneBody=0;top=0;left=0;strokeColor=inherit;bottom=0;right=0;dropTarget=0;fontStyle=0;fillColor=none;points=[[0,0.5],[1,0.5]];portConstraint=eastwest;startSize=40;collapsible=0;recursiveResize=0;expand=0;" vertex="1" parent="150">
                    <mxGeometry y="2040" width="2280" height="120" as="geometry"/>
                </mxCell>
                <mxCell id="492" value="" style="swimlane;swimlaneHead=0;swimlaneBody=0;fontStyle=0;connectable=0;strokeColor=inherit;fillColor=none;startSize=0;collapsible=0;recursiveResize=0;expand=0;" vertex="1" parent="491">
                    <mxGeometry x="40" width="118" height="120" as="geometry">
                        <mxRectangle width="118" height="120" as="alternateBounds"/>
                    </mxGeometry>
                </mxCell>
                <mxCell id="493" value="" style="swimlane;swimlaneHead=0;swimlaneBody=0;fontStyle=0;connectable=0;strokeColor=inherit;fillColor=none;startSize=0;collapsible=0;recursiveResize=0;expand=0;" vertex="1" parent="491">
                    <mxGeometry x="158" width="118" height="120" as="geometry">
                        <mxRectangle width="118" height="120" as="alternateBounds"/>
                    </mxGeometry>
                </mxCell>
                <mxCell id="494" value="" style="swimlane;swimlaneHead=0;swimlaneBody=0;fontStyle=0;connectable=0;strokeColor=inherit;fillColor=none;startSize=0;collapsible=0;recursiveResize=0;expand=0;" vertex="1" parent="491">
                    <mxGeometry x="276" width="118" height="120" as="geometry">
                        <mxRectangle width="118" height="120" as="alternateBounds"/>
                    </mxGeometry>
                </mxCell>
                <mxCell id="495" value="" style="swimlane;swimlaneHead=0;swimlaneBody=0;fontStyle=0;connectable=0;strokeColor=inherit;fillColor=none;startSize=0;collapsible=0;recursiveResize=0;expand=0;" vertex="1" parent="491">
                    <mxGeometry x="394" width="118" height="120" as="geometry">
                        <mxRectangle width="118" height="120" as="alternateBounds"/>
                    </mxGeometry>
                </mxCell>
                <mxCell id="496" value="" style="swimlane;swimlaneHead=0;swimlaneBody=0;fontStyle=0;connectable=0;strokeColor=inherit;fillColor=none;startSize=0;collapsible=0;recursiveResize=0;expand=0;" vertex="1" parent="491">
                    <mxGeometry x="512" width="117" height="120" as="geometry">
                        <mxRectangle width="117" height="120" as="alternateBounds"/>
                    </mxGeometry>
                </mxCell>
                <mxCell id="497" value="" style="swimlane;swimlaneHead=0;swimlaneBody=0;fontStyle=0;connectable=0;strokeColor=inherit;fillColor=none;startSize=0;collapsible=0;recursiveResize=0;expand=0;" vertex="1" parent="491">
                    <mxGeometry x="629" width="118" height="120" as="geometry">
                        <mxRectangle width="118" height="120" as="alternateBounds"/>
                    </mxGeometry>
                </mxCell>
                <mxCell id="498" value="" style="swimlane;swimlaneHead=0;swimlaneBody=0;fontStyle=0;connectable=0;strokeColor=inherit;fillColor=none;startSize=0;collapsible=0;recursiveResize=0;expand=0;" vertex="1" parent="491">
                    <mxGeometry x="747" width="118" height="120" as="geometry">
                        <mxRectangle width="118" height="120" as="alternateBounds"/>
                    </mxGeometry>
                </mxCell>
                <mxCell id="499" value="" style="swimlane;swimlaneHead=0;swimlaneBody=0;fontStyle=0;connectable=0;strokeColor=inherit;fillColor=none;startSize=0;collapsible=0;recursiveResize=0;expand=0;" vertex="1" parent="491">
                    <mxGeometry x="865" width="118" height="120" as="geometry">
                        <mxRectangle width="118" height="120" as="alternateBounds"/>
                    </mxGeometry>
                </mxCell>
                <mxCell id="500" value="" style="swimlane;swimlaneHead=0;swimlaneBody=0;fontStyle=0;connectable=0;strokeColor=inherit;fillColor=none;startSize=0;collapsible=0;recursiveResize=0;expand=0;" vertex="1" parent="491">
                    <mxGeometry x="983" width="118" height="120" as="geometry">
                        <mxRectangle width="118" height="120" as="alternateBounds"/>
                    </mxGeometry>
                </mxCell>
                <mxCell id="501" value="" style="swimlane;swimlaneHead=0;swimlaneBody=0;fontStyle=0;connectable=0;strokeColor=inherit;fillColor=none;startSize=0;collapsible=0;recursiveResize=0;expand=0;" vertex="1" parent="491">
                    <mxGeometry x="1101" width="118" height="120" as="geometry">
                        <mxRectangle width="118" height="120" as="alternateBounds"/>
                    </mxGeometry>
                </mxCell>
                <mxCell id="502" value="" style="swimlane;swimlaneHead=0;swimlaneBody=0;fontStyle=0;connectable=0;strokeColor=inherit;fillColor=none;startSize=0;collapsible=0;recursiveResize=0;expand=0;" vertex="1" parent="491">
                    <mxGeometry x="1219" width="118" height="120" as="geometry">
                        <mxRectangle width="118" height="120" as="alternateBounds"/>
                    </mxGeometry>
                </mxCell>
                <mxCell id="503" value="" style="swimlane;swimlaneHead=0;swimlaneBody=0;fontStyle=0;connectable=0;strokeColor=inherit;fillColor=none;startSize=0;collapsible=0;recursiveResize=0;expand=0;" vertex="1" parent="491">
                    <mxGeometry x="1337" width="118" height="120" as="geometry">
                        <mxRectangle width="118" height="120" as="alternateBounds"/>
                    </mxGeometry>
                </mxCell>
                <mxCell id="504" value="" style="swimlane;swimlaneHead=0;swimlaneBody=0;fontStyle=0;connectable=0;strokeColor=inherit;fillColor=none;startSize=0;collapsible=0;recursiveResize=0;expand=0;" vertex="1" parent="491">
                    <mxGeometry x="1455" width="118" height="120" as="geometry">
                        <mxRectangle width="118" height="120" as="alternateBounds"/>
                    </mxGeometry>
                </mxCell>
                <mxCell id="505" value="" style="swimlane;swimlaneHead=0;swimlaneBody=0;fontStyle=0;connectable=0;strokeColor=inherit;fillColor=none;startSize=0;collapsible=0;recursiveResize=0;expand=0;" vertex="1" parent="491">
                    <mxGeometry x="1573" width="118" height="120" as="geometry">
                        <mxRectangle width="118" height="120" as="alternateBounds"/>
                    </mxGeometry>
                </mxCell>
                <mxCell id="506" value="" style="swimlane;swimlaneHead=0;swimlaneBody=0;fontStyle=0;connectable=0;strokeColor=inherit;fillColor=none;startSize=0;collapsible=0;recursiveResize=0;expand=0;" vertex="1" parent="491">
                    <mxGeometry x="1691" width="117" height="120" as="geometry">
                        <mxRectangle width="117" height="120" as="alternateBounds"/>
                    </mxGeometry>
                </mxCell>
                <mxCell id="507" value="" style="swimlane;swimlaneHead=0;swimlaneBody=0;fontStyle=0;connectable=0;strokeColor=inherit;fillColor=none;startSize=0;collapsible=0;recursiveResize=0;expand=0;" vertex="1" parent="491">
                    <mxGeometry x="1808" width="118" height="120" as="geometry">
                        <mxRectangle width="118" height="120" as="alternateBounds"/>
                    </mxGeometry>
                </mxCell>
                <mxCell id="508" value="" style="swimlane;swimlaneHead=0;swimlaneBody=0;fontStyle=0;connectable=0;strokeColor=inherit;fillColor=none;startSize=0;collapsible=0;recursiveResize=0;expand=0;" vertex="1" parent="491">
                    <mxGeometry x="1926" width="118" height="120" as="geometry">
                        <mxRectangle width="118" height="120" as="alternateBounds"/>
                    </mxGeometry>
                </mxCell>
                <mxCell id="509" value="" style="swimlane;swimlaneHead=0;swimlaneBody=0;fontStyle=0;connectable=0;strokeColor=inherit;fillColor=none;startSize=0;collapsible=0;recursiveResize=0;expand=0;" vertex="1" parent="491">
                    <mxGeometry x="2044" width="118" height="120" as="geometry">
                        <mxRectangle width="118" height="120" as="alternateBounds"/>
                    </mxGeometry>
                </mxCell>
                <mxCell id="510" value="" style="swimlane;swimlaneHead=0;swimlaneBody=0;fontStyle=0;connectable=0;strokeColor=inherit;fillColor=none;startSize=0;collapsible=0;recursiveResize=0;expand=0;" vertex="1" parent="491">
                    <mxGeometry x="2162" width="118" height="120" as="geometry">
                        <mxRectangle width="118" height="120" as="alternateBounds"/>
                    </mxGeometry>
                </mxCell>
                <mxCell id="511" value="" style="shape=tableRow;horizontal=0;swimlaneHead=0;swimlaneBody=0;top=0;left=0;strokeColor=inherit;bottom=0;right=0;dropTarget=0;fontStyle=0;fillColor=none;points=[[0,0.5],[1,0.5]];portConstraint=eastwest;startSize=40;collapsible=0;recursiveResize=0;expand=0;" vertex="1" parent="150">
                    <mxGeometry y="2160" width="2280" height="120" as="geometry"/>
                </mxCell>
                <mxCell id="512" value="" style="swimlane;swimlaneHead=0;swimlaneBody=0;fontStyle=0;connectable=0;strokeColor=inherit;fillColor=none;startSize=0;collapsible=0;recursiveResize=0;expand=0;" vertex="1" parent="511">
                    <mxGeometry x="40" width="118" height="120" as="geometry">
                        <mxRectangle width="118" height="120" as="alternateBounds"/>
                    </mxGeometry>
                </mxCell>
                <mxCell id="513" value="" style="swimlane;swimlaneHead=0;swimlaneBody=0;fontStyle=0;connectable=0;strokeColor=inherit;fillColor=none;startSize=0;collapsible=0;recursiveResize=0;expand=0;" vertex="1" parent="511">
                    <mxGeometry x="158" width="118" height="120" as="geometry">
                        <mxRectangle width="118" height="120" as="alternateBounds"/>
                    </mxGeometry>
                </mxCell>
                <mxCell id="514" value="" style="swimlane;swimlaneHead=0;swimlaneBody=0;fontStyle=0;connectable=0;strokeColor=inherit;fillColor=none;startSize=0;collapsible=0;recursiveResize=0;expand=0;" vertex="1" parent="511">
                    <mxGeometry x="276" width="118" height="120" as="geometry">
                        <mxRectangle width="118" height="120" as="alternateBounds"/>
                    </mxGeometry>
                </mxCell>
                <mxCell id="515" value="" style="swimlane;swimlaneHead=0;swimlaneBody=0;fontStyle=0;connectable=0;strokeColor=inherit;fillColor=none;startSize=0;collapsible=0;recursiveResize=0;expand=0;" vertex="1" parent="511">
                    <mxGeometry x="394" width="118" height="120" as="geometry">
                        <mxRectangle width="118" height="120" as="alternateBounds"/>
                    </mxGeometry>
                </mxCell>
                <mxCell id="516" value="" style="swimlane;swimlaneHead=0;swimlaneBody=0;fontStyle=0;connectable=0;strokeColor=inherit;fillColor=none;startSize=0;collapsible=0;recursiveResize=0;expand=0;" vertex="1" parent="511">
                    <mxGeometry x="512" width="117" height="120" as="geometry">
                        <mxRectangle width="117" height="120" as="alternateBounds"/>
                    </mxGeometry>
                </mxCell>
                <mxCell id="517" value="" style="swimlane;swimlaneHead=0;swimlaneBody=0;fontStyle=0;connectable=0;strokeColor=inherit;fillColor=none;startSize=0;collapsible=0;recursiveResize=0;expand=0;" vertex="1" parent="511">
                    <mxGeometry x="629" width="118" height="120" as="geometry">
                        <mxRectangle width="118" height="120" as="alternateBounds"/>
                    </mxGeometry>
                </mxCell>
                <mxCell id="518" value="" style="swimlane;swimlaneHead=0;swimlaneBody=0;fontStyle=0;connectable=0;strokeColor=inherit;fillColor=none;startSize=0;collapsible=0;recursiveResize=0;expand=0;" vertex="1" parent="511">
                    <mxGeometry x="747" width="118" height="120" as="geometry">
                        <mxRectangle width="118" height="120" as="alternateBounds"/>
                    </mxGeometry>
                </mxCell>
                <mxCell id="519" value="" style="swimlane;swimlaneHead=0;swimlaneBody=0;fontStyle=0;connectable=0;strokeColor=inherit;fillColor=none;startSize=0;collapsible=0;recursiveResize=0;expand=0;" vertex="1" parent="511">
                    <mxGeometry x="865" width="118" height="120" as="geometry">
                        <mxRectangle width="118" height="120" as="alternateBounds"/>
                    </mxGeometry>
                </mxCell>
                <mxCell id="520" value="" style="swimlane;swimlaneHead=0;swimlaneBody=0;fontStyle=0;connectable=0;strokeColor=inherit;fillColor=none;startSize=0;collapsible=0;recursiveResize=0;expand=0;" vertex="1" parent="511">
                    <mxGeometry x="983" width="118" height="120" as="geometry">
                        <mxRectangle width="118" height="120" as="alternateBounds"/>
                    </mxGeometry>
                </mxCell>
                <mxCell id="521" value="" style="swimlane;swimlaneHead=0;swimlaneBody=0;fontStyle=0;connectable=0;strokeColor=inherit;fillColor=none;startSize=0;collapsible=0;recursiveResize=0;expand=0;" vertex="1" parent="511">
                    <mxGeometry x="1101" width="118" height="120" as="geometry">
                        <mxRectangle width="118" height="120" as="alternateBounds"/>
                    </mxGeometry>
                </mxCell>
                <mxCell id="522" value="" style="swimlane;swimlaneHead=0;swimlaneBody=0;fontStyle=0;connectable=0;strokeColor=inherit;fillColor=none;startSize=0;collapsible=0;recursiveResize=0;expand=0;" vertex="1" parent="511">
                    <mxGeometry x="1219" width="118" height="120" as="geometry">
                        <mxRectangle width="118" height="120" as="alternateBounds"/>
                    </mxGeometry>
                </mxCell>
                <mxCell id="523" value="" style="swimlane;swimlaneHead=0;swimlaneBody=0;fontStyle=0;connectable=0;strokeColor=inherit;fillColor=none;startSize=0;collapsible=0;recursiveResize=0;expand=0;" vertex="1" parent="511">
                    <mxGeometry x="1337" width="118" height="120" as="geometry">
                        <mxRectangle width="118" height="120" as="alternateBounds"/>
                    </mxGeometry>
                </mxCell>
                <mxCell id="524" value="" style="swimlane;swimlaneHead=0;swimlaneBody=0;fontStyle=0;connectable=0;strokeColor=inherit;fillColor=none;startSize=0;collapsible=0;recursiveResize=0;expand=0;" vertex="1" parent="511">
                    <mxGeometry x="1455" width="118" height="120" as="geometry">
                        <mxRectangle width="118" height="120" as="alternateBounds"/>
                    </mxGeometry>
                </mxCell>
                <mxCell id="525" value="" style="swimlane;swimlaneHead=0;swimlaneBody=0;fontStyle=0;connectable=0;strokeColor=inherit;fillColor=none;startSize=0;collapsible=0;recursiveResize=0;expand=0;" vertex="1" parent="511">
                    <mxGeometry x="1573" width="118" height="120" as="geometry">
                        <mxRectangle width="118" height="120" as="alternateBounds"/>
                    </mxGeometry>
                </mxCell>
                <mxCell id="526" value="" style="swimlane;swimlaneHead=0;swimlaneBody=0;fontStyle=0;connectable=0;strokeColor=inherit;fillColor=none;startSize=0;collapsible=0;recursiveResize=0;expand=0;" vertex="1" parent="511">
                    <mxGeometry x="1691" width="117" height="120" as="geometry">
                        <mxRectangle width="117" height="120" as="alternateBounds"/>
                    </mxGeometry>
                </mxCell>
                <mxCell id="527" value="" style="swimlane;swimlaneHead=0;swimlaneBody=0;fontStyle=0;connectable=0;strokeColor=inherit;fillColor=none;startSize=0;collapsible=0;recursiveResize=0;expand=0;" vertex="1" parent="511">
                    <mxGeometry x="1808" width="118" height="120" as="geometry">
                        <mxRectangle width="118" height="120" as="alternateBounds"/>
                    </mxGeometry>
                </mxCell>
                <mxCell id="528" value="" style="swimlane;swimlaneHead=0;swimlaneBody=0;fontStyle=0;connectable=0;strokeColor=inherit;fillColor=none;startSize=0;collapsible=0;recursiveResize=0;expand=0;" vertex="1" parent="511">
                    <mxGeometry x="1926" width="118" height="120" as="geometry">
                        <mxRectangle width="118" height="120" as="alternateBounds"/>
                    </mxGeometry>
                </mxCell>
                <mxCell id="529" value="" style="swimlane;swimlaneHead=0;swimlaneBody=0;fontStyle=0;connectable=0;strokeColor=inherit;fillColor=none;startSize=0;collapsible=0;recursiveResize=0;expand=0;" vertex="1" parent="511">
                    <mxGeometry x="2044" width="118" height="120" as="geometry">
                        <mxRectangle width="118" height="120" as="alternateBounds"/>
                    </mxGeometry>
                </mxCell>
                <mxCell id="530" value="" style="swimlane;swimlaneHead=0;swimlaneBody=0;fontStyle=0;connectable=0;strokeColor=inherit;fillColor=none;startSize=0;collapsible=0;recursiveResize=0;expand=0;" vertex="1" parent="511">
                    <mxGeometry x="2162" width="118" height="120" as="geometry">
                        <mxRectangle width="118" height="120" as="alternateBounds"/>
                    </mxGeometry>
                </mxCell>
                <mxCell id="531" value="" style="shape=tableRow;horizontal=0;swimlaneHead=0;swimlaneBody=0;top=0;left=0;strokeColor=inherit;bottom=0;right=0;dropTarget=0;fontStyle=0;fillColor=none;points=[[0,0.5],[1,0.5]];portConstraint=eastwest;startSize=40;collapsible=0;recursiveResize=0;expand=0;" vertex="1" parent="150">
                    <mxGeometry y="2280" width="2280" height="120" as="geometry"/>
                </mxCell>
                <mxCell id="532" value="" style="swimlane;swimlaneHead=0;swimlaneBody=0;fontStyle=0;connectable=0;strokeColor=inherit;fillColor=none;startSize=0;collapsible=0;recursiveResize=0;expand=0;" vertex="1" parent="531">
                    <mxGeometry x="40" width="118" height="120" as="geometry">
                        <mxRectangle width="118" height="120" as="alternateBounds"/>
                    </mxGeometry>
                </mxCell>
                <mxCell id="533" value="" style="swimlane;swimlaneHead=0;swimlaneBody=0;fontStyle=0;connectable=0;strokeColor=inherit;fillColor=none;startSize=0;collapsible=0;recursiveResize=0;expand=0;" vertex="1" parent="531">
                    <mxGeometry x="158" width="118" height="120" as="geometry">
                        <mxRectangle width="118" height="120" as="alternateBounds"/>
                    </mxGeometry>
                </mxCell>
                <mxCell id="534" value="" style="swimlane;swimlaneHead=0;swimlaneBody=0;fontStyle=0;connectable=0;strokeColor=inherit;fillColor=none;startSize=0;collapsible=0;recursiveResize=0;expand=0;" vertex="1" parent="531">
                    <mxGeometry x="276" width="118" height="120" as="geometry">
                        <mxRectangle width="118" height="120" as="alternateBounds"/>
                    </mxGeometry>
                </mxCell>
                <mxCell id="535" value="" style="swimlane;swimlaneHead=0;swimlaneBody=0;fontStyle=0;connectable=0;strokeColor=inherit;fillColor=none;startSize=0;collapsible=0;recursiveResize=0;expand=0;" vertex="1" parent="531">
                    <mxGeometry x="394" width="118" height="120" as="geometry">
                        <mxRectangle width="118" height="120" as="alternateBounds"/>
                    </mxGeometry>
                </mxCell>
                <mxCell id="536" value="" style="swimlane;swimlaneHead=0;swimlaneBody=0;fontStyle=0;connectable=0;strokeColor=inherit;fillColor=none;startSize=0;collapsible=0;recursiveResize=0;expand=0;" vertex="1" parent="531">
                    <mxGeometry x="512" width="117" height="120" as="geometry">
                        <mxRectangle width="117" height="120" as="alternateBounds"/>
                    </mxGeometry>
                </mxCell>
                <mxCell id="537" value="" style="swimlane;swimlaneHead=0;swimlaneBody=0;fontStyle=0;connectable=0;strokeColor=inherit;fillColor=none;startSize=0;collapsible=0;recursiveResize=0;expand=0;" vertex="1" parent="531">
                    <mxGeometry x="629" width="118" height="120" as="geometry">
                        <mxRectangle width="118" height="120" as="alternateBounds"/>
                    </mxGeometry>
                </mxCell>
                <mxCell id="538" value="" style="swimlane;swimlaneHead=0;swimlaneBody=0;fontStyle=0;connectable=0;strokeColor=inherit;fillColor=none;startSize=0;collapsible=0;recursiveResize=0;expand=0;" vertex="1" parent="531">
                    <mxGeometry x="747" width="118" height="120" as="geometry">
                        <mxRectangle width="118" height="120" as="alternateBounds"/>
                    </mxGeometry>
                </mxCell>
                <mxCell id="539" value="" style="swimlane;swimlaneHead=0;swimlaneBody=0;fontStyle=0;connectable=0;strokeColor=inherit;fillColor=none;startSize=0;collapsible=0;recursiveResize=0;expand=0;" vertex="1" parent="531">
                    <mxGeometry x="865" width="118" height="120" as="geometry">
                        <mxRectangle width="118" height="120" as="alternateBounds"/>
                    </mxGeometry>
                </mxCell>
                <mxCell id="540" value="" style="swimlane;swimlaneHead=0;swimlaneBody=0;fontStyle=0;connectable=0;strokeColor=inherit;fillColor=none;startSize=0;collapsible=0;recursiveResize=0;expand=0;" vertex="1" parent="531">
                    <mxGeometry x="983" width="118" height="120" as="geometry">
                        <mxRectangle width="118" height="120" as="alternateBounds"/>
                    </mxGeometry>
                </mxCell>
                <mxCell id="541" value="" style="swimlane;swimlaneHead=0;swimlaneBody=0;fontStyle=0;connectable=0;strokeColor=inherit;fillColor=none;startSize=0;collapsible=0;recursiveResize=0;expand=0;" vertex="1" parent="531">
                    <mxGeometry x="1101" width="118" height="120" as="geometry">
                        <mxRectangle width="118" height="120" as="alternateBounds"/>
                    </mxGeometry>
                </mxCell>
                <mxCell id="542" value="" style="swimlane;swimlaneHead=0;swimlaneBody=0;fontStyle=0;connectable=0;strokeColor=inherit;fillColor=none;startSize=0;collapsible=0;recursiveResize=0;expand=0;" vertex="1" parent="531">
                    <mxGeometry x="1219" width="118" height="120" as="geometry">
                        <mxRectangle width="118" height="120" as="alternateBounds"/>
                    </mxGeometry>
                </mxCell>
                <mxCell id="543" value="" style="swimlane;swimlaneHead=0;swimlaneBody=0;fontStyle=0;connectable=0;strokeColor=inherit;fillColor=none;startSize=0;collapsible=0;recursiveResize=0;expand=0;" vertex="1" parent="531">
                    <mxGeometry x="1337" width="118" height="120" as="geometry">
                        <mxRectangle width="118" height="120" as="alternateBounds"/>
                    </mxGeometry>
                </mxCell>
                <mxCell id="544" value="" style="swimlane;swimlaneHead=0;swimlaneBody=0;fontStyle=0;connectable=0;strokeColor=inherit;fillColor=none;startSize=0;collapsible=0;recursiveResize=0;expand=0;" vertex="1" parent="531">
                    <mxGeometry x="1455" width="118" height="120" as="geometry">
                        <mxRectangle width="118" height="120" as="alternateBounds"/>
                    </mxGeometry>
                </mxCell>
                <mxCell id="545" value="" style="swimlane;swimlaneHead=0;swimlaneBody=0;fontStyle=0;connectable=0;strokeColor=inherit;fillColor=none;startSize=0;collapsible=0;recursiveResize=0;expand=0;" vertex="1" parent="531">
                    <mxGeometry x="1573" width="118" height="120" as="geometry">
                        <mxRectangle width="118" height="120" as="alternateBounds"/>
                    </mxGeometry>
                </mxCell>
                <mxCell id="546" value="" style="swimlane;swimlaneHead=0;swimlaneBody=0;fontStyle=0;connectable=0;strokeColor=inherit;fillColor=none;startSize=0;collapsible=0;recursiveResize=0;expand=0;" vertex="1" parent="531">
                    <mxGeometry x="1691" width="117" height="120" as="geometry">
                        <mxRectangle width="117" height="120" as="alternateBounds"/>
                    </mxGeometry>
                </mxCell>
                <mxCell id="547" value="" style="swimlane;swimlaneHead=0;swimlaneBody=0;fontStyle=0;connectable=0;strokeColor=inherit;fillColor=none;startSize=0;collapsible=0;recursiveResize=0;expand=0;" vertex="1" parent="531">
                    <mxGeometry x="1808" width="118" height="120" as="geometry">
                        <mxRectangle width="118" height="120" as="alternateBounds"/>
                    </mxGeometry>
                </mxCell>
                <mxCell id="548" value="" style="swimlane;swimlaneHead=0;swimlaneBody=0;fontStyle=0;connectable=0;strokeColor=inherit;fillColor=none;startSize=0;collapsible=0;recursiveResize=0;expand=0;" vertex="1" parent="531">
                    <mxGeometry x="1926" width="118" height="120" as="geometry">
                        <mxRectangle width="118" height="120" as="alternateBounds"/>
                    </mxGeometry>
                </mxCell>
                <mxCell id="549" value="" style="swimlane;swimlaneHead=0;swimlaneBody=0;fontStyle=0;connectable=0;strokeColor=inherit;fillColor=none;startSize=0;collapsible=0;recursiveResize=0;expand=0;" vertex="1" parent="531">
                    <mxGeometry x="2044" width="118" height="120" as="geometry">
                        <mxRectangle width="118" height="120" as="alternateBounds"/>
                    </mxGeometry>
                </mxCell>
                <mxCell id="550" value="" style="swimlane;swimlaneHead=0;swimlaneBody=0;fontStyle=0;connectable=0;strokeColor=inherit;fillColor=none;startSize=0;collapsible=0;recursiveResize=0;expand=0;" vertex="1" parent="531">
                    <mxGeometry x="2162" width="118" height="120" as="geometry">
                        <mxRectangle width="118" height="120" as="alternateBounds"/>
                    </mxGeometry>
                </mxCell>
            </root>
        </mxGraphModel>
    </diagram>
</mxfile>